<svg width="224" height="102" viewBox="0 0 224 102" fill="none" xmlns="http://www.w3.org/2000/svg">
<path d="M17.5863 38.2754C17.5508 38.4002 17.4265 38.8991 17.3199 39.3981C16.9647 41.1444 16.8403 41.5008 16.5561 41.6968C16.1299 41.9463 16.0588 41.8216 15.6858 40.2713C15.5082 39.5228 15.3306 38.8635 15.2773 38.8278C14.9221 38.4715 13.9807 39.9861 13.661 41.4295C13.3946 42.6591 12.6842 41.7859 12.6842 40.2C12.6842 39.113 12.5598 38.7744 12.1336 38.7744C11.6718 38.7744 11.5297 39.2021 11.7783 39.8079C11.8849 40.0752 12.0625 40.7168 12.1513 41.2335C12.8795 45.0826 12.8085 44.9579 13.5722 44.3342C13.8742 44.0847 14.0163 43.7105 14.1406 42.8551C14.2294 42.1245 14.407 41.5899 14.6379 41.3583C15.082 40.9128 15.2063 41.0553 15.7214 42.57C15.9345 43.2472 16.2542 43.96 16.4141 44.1738L16.716 44.548L17.0002 44.0134C17.1423 43.7283 17.3199 43.0155 17.3909 42.4275C17.462 41.8394 17.6041 41.2692 17.6929 41.1444C18.0126 40.7346 18.3856 38.5606 18.1724 38.2933C17.9238 38.0081 17.6751 37.9903 17.5863 38.2754Z" fill="black"/>
<path d="M34.8859 38.8813C34.3353 40.1643 34.4596 41.0019 35.1345 40.5029C35.7029 40.0931 35.916 38.0616 35.401 38.0616C35.3121 38.0616 35.0635 38.4358 34.8859 38.8813Z" fill="black"/>
<path d="M23.2877 38.5427C23.2344 38.7209 23.1989 39.2912 23.1989 39.8258C23.1989 40.5207 23.1279 40.8593 22.8792 41.0731C22.4529 41.4652 20.5169 42.1958 20.286 42.0532C20.1972 41.982 20.1617 41.3583 20.1972 40.5564C20.2683 39.4872 20.2327 39.0951 20.0551 38.9526C19.913 38.8278 19.7354 38.7922 19.6466 38.8457C19.5578 38.8991 19.469 39.9327 19.4512 41.1266C19.4512 42.3384 19.3802 43.5679 19.3269 43.8709C19.2559 44.2451 19.3092 44.4767 19.5045 44.6371C19.8598 44.94 20.0907 44.7797 20.2327 44.1025C20.3748 43.4432 21.3517 42.766 22.3819 42.5878C23.039 42.4987 23.1278 42.5166 23.2167 42.8908C23.2877 43.1224 23.341 43.6214 23.341 43.9778C23.341 44.7084 23.6074 45.0113 23.8205 44.5302C24.0514 44.0312 23.8205 38.3645 23.5719 38.2932C23.4653 38.2576 23.3232 38.3645 23.2877 38.5427Z" fill="black"/>
<path d="M32.2572 38.5249C30.3922 38.81 29.7351 39.0595 29.7351 39.5406C29.7351 39.8614 29.8239 39.8792 30.5166 39.7901C31.4757 39.6476 31.4579 39.6119 31.4935 42.0711C31.5112 43.0511 31.6 43.9243 31.6888 44.0134C32.0618 44.3876 32.2217 43.8352 32.2394 42.1958C32.2572 39.9149 32.3638 39.6297 33.1097 39.3981C33.909 39.1664 34.1754 38.9882 34.1754 38.6853C34.1754 38.3111 33.838 38.2933 32.2572 38.5249Z" fill="black"/>
<path d="M39.7703 38.3645C38.3849 38.7031 37.2126 39.6476 36.8751 40.6989C36.5199 41.7325 37.2304 42.374 38.4026 42.0711C39.6104 41.7681 40.0544 41.7681 40.4985 42.0711L40.9603 42.374L40.5695 42.7839C40.3741 42.9977 39.8768 43.3363 39.4861 43.5145C38.7934 43.8174 38.7579 43.8174 38.2428 43.5145C37.6211 43.1402 37.1949 43.2472 37.1949 43.7461C37.1949 44.1916 38.0119 44.6549 38.7756 44.6549C39.5216 44.6549 40.1965 44.3342 40.978 43.6036C41.5109 43.1046 41.6352 42.8551 41.6352 42.3205C41.6352 41.2335 41.3155 41.0553 39.4328 41.1088C37.5323 41.1801 37.3192 40.9662 38.3493 40.0396C38.8289 39.6297 39.1486 39.4872 39.6814 39.4872C40.5873 39.4872 40.9247 39.3446 40.9247 38.9348C40.9247 38.6675 40.3919 38.1863 40.1788 38.2576C40.1432 38.2754 39.9656 38.3289 39.7703 38.3645Z" fill="black"/>
<path d="M26.8045 39.4872C25.8809 40.7702 24.4067 43.7639 24.4067 44.3876C24.4067 44.9757 24.975 44.9757 25.348 44.4055C25.6677 43.9421 27.7813 43.1224 28.2254 43.3006C28.3675 43.3541 28.5451 43.6392 28.6161 43.9421C28.7049 44.2451 28.847 44.5124 28.9358 44.5302C29.2378 44.5837 29.2378 43.1224 28.9536 42.2493C28.7937 41.8038 28.6694 41.1801 28.6694 40.8593C28.6694 40.1822 28.0833 38.5427 27.8169 38.4536C27.7103 38.418 27.2485 38.8813 26.8045 39.4872ZM27.8701 40.4495C28.0477 40.7168 28.1366 41.1622 28.101 41.5543C28.0477 42.178 28.0122 42.2136 27.1597 42.4453C25.7921 42.7839 25.7743 42.6591 26.9465 40.592C27.3373 39.9149 27.4971 39.8792 27.8701 40.4495Z" fill="black"/>
<path d="M26.8577 48.7891C26.6268 49.1099 26.2361 49.6979 25.9874 50.09C25.5789 50.7493 25.348 51.1948 24.4955 53.0837C24.1758 53.8321 24.2468 54.634 24.6731 54.634C24.7974 54.634 24.975 54.4737 25.0283 54.2776C25.1526 53.8678 25.7388 53.5292 26.9288 53.2085C27.9589 52.9412 28.3142 53.0481 28.3142 53.654C28.3142 54.1529 28.7582 54.438 29.0779 54.1173C29.22 53.9747 29.2022 53.743 29.0246 53.2441C28.8825 52.8877 28.7227 52.1749 28.6516 51.6938C28.5806 51.1948 28.4207 50.3929 28.3142 49.9118C28.1898 49.4128 28.0655 48.8426 28.03 48.6109C27.9234 48.0407 27.3551 48.112 26.8577 48.7891ZM27.6925 50.4642C27.8346 50.8206 27.9589 51.3374 27.9589 51.6047C27.9589 52.068 27.8879 52.1214 27.0531 52.2284C26.538 52.2996 26.0762 52.2818 25.9874 52.1927C25.7032 51.9076 26.8933 49.894 27.3728 49.8227C27.4083 49.8227 27.5504 50.1078 27.6925 50.4642Z" fill="black"/>
<path d="M32.4881 57.8416C32.3282 58.0911 32.1684 63.1341 32.2927 63.6509C32.3638 63.8825 32.5236 64.0786 32.6657 64.0786C32.8788 64.0786 32.9321 63.7222 32.9499 62.0649C32.9676 60.9779 33.0032 59.6058 33.0209 59.0355C33.0387 58.0376 32.7723 57.3961 32.4881 57.8416Z" fill="black"/>
<path d="M35.4365 58.002C34.9214 58.1802 34.4241 58.4297 34.353 58.5722C34.2642 58.7148 34.1577 59.98 34.1044 61.3699L34.0156 63.9182L34.4596 64.1142C34.8148 64.2746 35.028 64.2746 35.472 64.0429C35.7917 63.8825 36.4489 63.5974 36.9284 63.4014C37.9408 62.9916 38.225 62.4748 37.4257 62.4748C37.1593 62.4926 36.7331 62.5995 36.4844 62.7421C36.2357 62.8846 35.8095 62.9916 35.543 63.0094C35.0635 63.0094 35.0457 62.9737 35.099 62.3322C35.1523 61.7798 35.2411 61.6194 35.7739 61.3699C36.1114 61.2096 36.6442 61.0135 36.9284 60.9244C37.781 60.675 37.6034 60.2473 36.662 60.2473C36.218 60.2651 35.7029 60.3008 35.5075 60.3364C35.2233 60.4077 35.1345 60.3186 35.099 59.8731C35.028 59.1425 35.4187 58.8395 36.6442 58.7326C37.5678 58.6435 37.6389 58.6079 37.6389 58.198C37.6389 57.806 37.5501 57.7525 37.0172 57.7169C36.6798 57.6991 35.9693 57.8238 35.4365 58.002Z" fill="black"/>
<path d="M39.6459 57.9842C38.9532 58.2158 38.7934 58.3406 38.7934 58.6613C38.7934 59.2316 39.0065 59.3028 39.7703 58.9999C40.1965 58.8039 40.8359 58.7326 41.6885 58.7682C42.8252 58.8217 42.9673 58.8573 43.0206 59.1959C43.0561 59.4632 42.843 59.6949 42.2036 60.1226C41.724 60.4255 41.1201 60.7641 40.8715 60.8532C40.5162 60.9957 40.3919 61.1739 40.3919 61.4947C40.3919 62.0649 40.7294 62.0649 41.5997 61.5125C43.3758 60.3899 44.0685 58.893 43.1804 58.0555C42.843 57.7347 42.5765 57.6634 41.6174 57.6812C40.9958 57.6991 40.1077 57.8416 39.6459 57.9842Z" fill="black"/>
<path d="M12.4177 58.1802C11.6895 58.6435 10.837 59.5701 10.393 60.4255C9.86011 61.4412 9.86011 63.1697 10.4285 63.6687C11.2633 64.435 12.3467 64.3102 13.6255 63.3301C14.3005 62.7955 14.4958 62.2966 14.034 62.2966C13.8919 62.2966 13.2881 62.546 12.7019 62.8668L11.6185 63.437L11.1389 63.0806C10.8547 62.8668 10.6239 62.4926 10.5883 62.2431C10.5173 61.6016 11.1034 60.5146 11.9382 59.7662C12.9328 58.8752 13.3236 58.6791 13.7321 58.893C13.9807 59.0355 14.1228 59.0177 14.3005 58.8039C14.4958 58.5544 14.4781 58.4653 14.1228 58.1802C13.6078 57.7525 13.0927 57.7525 12.4177 58.1802Z" fill="black"/>
<path d="M17.16 58.3049C16.3785 58.697 16.1121 58.9643 15.526 59.98C14.5846 61.5838 14.5491 62.5461 15.3839 63.4549C15.8102 63.936 16.0766 64.0786 16.5206 64.0786C17.4975 64.0786 18.5809 63.544 19.5401 62.6173C20.4636 61.7085 20.6768 61.7263 20.6768 62.653C20.6768 62.8312 20.9077 63.2232 21.1919 63.5261C21.8135 64.2033 22.5595 64.2568 23.785 63.7043C25.348 63.0094 26.2894 61.4947 26.0762 60.0156C25.9519 59.089 25.4368 58.1089 25.0106 57.9485C23.9094 57.5209 22.4529 58.198 21.3695 59.6592C21.1741 59.9444 20.9432 60.1582 20.8544 60.1582C20.7656 60.1582 20.5169 59.7483 20.3038 59.2672C19.6644 57.7882 18.7408 57.503 17.16 58.3049ZM19.4335 59.0712C20.0018 59.5167 19.9841 60.4255 19.3624 61.4769C18.7586 62.4926 17.9415 63.0094 16.8936 63.0094C16.1121 63.0094 16.0411 62.9737 15.7214 62.3144C15.2951 61.4769 15.4372 60.7284 16.1832 59.9265C17.3021 58.7326 18.5632 58.4118 19.4335 59.0712ZM25.277 59.1603L25.2785 59.1619C25.6678 59.588 25.6851 59.607 25.4013 60.5681C24.9217 62.2075 24.0337 63.0094 22.6483 63.0094C21.7425 63.0094 21.2096 62.4035 21.2096 61.3343C21.2274 60.4968 21.5116 60.0691 22.6483 59.285C23.6607 58.59 24.6909 58.5366 25.277 59.1603Z" fill="black"/>
<path d="M29.1134 59.1781C28.5273 59.8018 27.8879 60.3364 27.6925 60.372C27.3906 60.4255 27.3373 60.3364 27.3728 59.7483C27.4261 59.0355 27.1952 58.3762 26.8933 58.3762C26.5913 58.3762 26.3959 60.1047 26.4847 61.9758C26.5736 63.7043 26.6268 63.9004 26.911 63.9004C27.1774 63.9004 27.2485 63.7578 27.2485 63.3123C27.2485 62.5995 27.6748 61.9402 28.1366 61.9402C28.5806 61.9402 29.3443 62.2788 30.0193 62.7777C30.6409 63.241 31.156 63.3123 31.156 62.9203C31.156 62.653 29.4864 61.2274 29.1845 61.2274C28.7582 61.2274 29.1134 60.5324 30.0193 59.588C31.0139 58.5366 31.1382 58.1446 30.5166 58.0733C30.3034 58.0376 29.8061 58.4297 29.1134 59.1781Z" fill="black"/>
<path d="M40.4274 63.4905C40.4985 64.0964 40.9958 64.2389 41.28 63.7222C41.5286 63.2588 41.3688 63.0094 40.8182 63.0094C40.4274 63.0094 40.3741 63.0806 40.4274 63.4905Z" fill="black"/>
<path d="M145.006 30.0605C144.456 31.4861 144.1 31.6821 142.058 31.8247C141.152 31.8781 140.353 31.985 140.282 32.0563C140.069 32.2702 140.371 32.7156 140.868 32.9117C141.152 33.0364 142.165 33.1255 143.141 33.1433C144.616 33.1611 145.006 33.1077 145.415 32.8226C146.125 32.3414 146.196 32.0919 146.108 30.4347C146.054 29.223 145.983 28.9735 145.735 28.9735C145.539 28.9735 145.29 29.3477 145.006 30.0605Z" fill="black"/>
<path fill-rule="evenodd" clip-rule="evenodd" d="M7.90636 2.26153C8.4392 2.36845 10.535 2.51101 12.5954 2.60011C14.6557 2.67139 17.2844 2.83177 18.4566 2.93869C24.7441 3.54456 26.2716 3.65148 28.1366 3.6693C29.2555 3.6693 30.4988 3.7584 30.8896 3.8475C31.2803 3.9366 32.275 4.0257 33.1097 4.0257C33.9445 4.0257 35.2589 4.09698 36.0404 4.2039C36.8219 4.29299 38.2605 4.41773 39.2374 4.47119C42.2036 4.64939 42.3989 4.75631 45.2763 7.69658C47.7984 10.2983 50.0186 13.6662 50.5336 15.6977C50.6935 16.357 51.0487 17.3728 51.2441 17.7826C51.3329 17.9608 51.475 18.3885 51.5638 18.7627C51.7414 19.529 52.3631 21.8634 52.736 23.182C54.4944 29.3833 55.0983 32.8047 55.6844 39.6119C55.862 41.8038 55.8443 42.374 55.5956 43.853C55.4358 44.7975 55.3114 46.4725 55.3114 47.5596C55.3114 48.6644 55.2226 50.0722 55.1338 50.7137C55.0273 51.3552 54.8674 52.7095 54.7786 53.743C54.6898 54.7766 54.4767 56.4517 54.3346 57.4852C54.1747 58.5188 53.9793 59.98 53.8905 60.7462C53.6241 62.9915 53.0025 66.7159 52.6117 68.3553L52.551 68.6153C51.8782 71.4967 51.7846 71.8978 51.4395 72.9885C50.7823 75.1447 50.5159 76.1426 50.5159 76.499C50.5159 76.695 50.3915 77.1583 50.2495 77.4969C50.1074 77.8533 49.983 78.3522 49.983 78.5839C49.983 78.8334 49.8765 79.2967 49.7344 79.6175C49.61 79.9382 49.3614 80.651 49.1838 81.1856C49.0062 81.7202 48.7575 82.3439 48.6154 82.5755C48.2602 83.1458 48.4733 83.6269 49.1838 83.8586C49.5212 83.9655 49.8054 84.1259 49.8054 84.215C49.8054 84.4644 49.0417 84.9278 48.6332 84.9278C48.1181 84.9278 46.9991 85.7653 45.7736 87.1018C44.6546 88.3135 41.8483 91.236 39.9123 93.214C37.9586 95.2276 35.472 97.0809 32.8078 98.4887C31.1027 99.4153 31.0139 99.4331 28.7582 99.6648C26.5558 99.8964 2.93318 100.306 2.43586 100.128C2.32929 100.075 2.1872 99.9142 2.11616 99.7539C1.97407 99.3797 1.99183 3.90096 2.13392 3.08125C2.1872 2.77831 2.25825 2.40409 2.31153 2.27935C2.38258 1.99424 6.52098 1.97642 7.90636 2.26153ZM17.3199 39.3981C17.4265 38.8991 17.5508 38.4002 17.5863 38.2754C17.6751 37.9903 17.9238 38.0081 18.1724 38.2933C18.3856 38.5606 18.0126 40.7346 17.6929 41.1444C17.6041 41.2692 17.462 41.8394 17.3909 42.4275C17.3199 43.0155 17.1423 43.7283 17.0002 44.0134L16.716 44.548L16.4141 44.1738C16.2542 43.96 15.9345 43.2472 15.7214 42.57C15.2063 41.0553 15.082 40.9128 14.6379 41.3583C14.407 41.5899 14.2294 42.1245 14.1406 42.8551C14.0163 43.7105 13.8742 44.0847 13.5722 44.3342C12.8085 44.9579 12.8795 45.0826 12.1513 41.2335C12.0625 40.7168 11.8849 40.0752 11.7783 39.8079C11.5297 39.2021 11.6718 38.7744 12.1336 38.7744C12.5598 38.7744 12.6842 39.113 12.6842 40.2C12.6842 41.7859 13.3946 42.6591 13.661 41.4295C13.9807 39.9861 14.9221 38.4715 15.2773 38.8278C15.3306 38.8635 15.5082 39.5228 15.6858 40.2713C16.0588 41.8216 16.1299 41.9463 16.5561 41.6968C16.8403 41.5008 16.9647 41.1444 17.3199 39.3981ZM35.1345 40.5029C34.4596 41.0019 34.3353 40.1643 34.8859 38.8813C35.0635 38.4358 35.3121 38.0616 35.401 38.0616C35.916 38.0616 35.7029 40.0931 35.1345 40.5029ZM23.1989 39.8258C23.1989 39.2912 23.2344 38.7209 23.2877 38.5427C23.3232 38.3645 23.4653 38.2576 23.5719 38.2932C23.8205 38.3645 24.0514 44.0312 23.8205 44.5302C23.6074 45.0113 23.341 44.7084 23.341 43.9778C23.341 43.6214 23.2877 43.1224 23.2167 42.8908C23.1278 42.5166 23.039 42.4987 22.3819 42.5878C21.3517 42.766 20.3748 43.4432 20.2327 44.1025C20.0907 44.7797 19.8598 44.94 19.5045 44.6371C19.3092 44.4767 19.2559 44.2451 19.3269 43.8709C19.3802 43.5679 19.4512 42.3384 19.4512 41.1266C19.469 39.9327 19.5578 38.8991 19.6466 38.8457C19.7354 38.7922 19.913 38.8278 20.0551 38.9526C20.2327 39.0951 20.2683 39.4872 20.1972 40.5564C20.1617 41.3583 20.1972 41.982 20.286 42.0532C20.5169 42.1958 22.4529 41.4652 22.8792 41.0731C23.1279 40.8593 23.1989 40.5207 23.1989 39.8258ZM29.7351 39.5406C29.7351 39.0595 30.3922 38.81 32.2572 38.5249C33.838 38.2933 34.1754 38.3111 34.1754 38.6853C34.1754 38.9882 33.909 39.1664 33.1097 39.3981C32.3638 39.6297 32.2572 39.9149 32.2394 42.1958C32.2217 43.8352 32.0618 44.3876 31.6888 44.0134C31.6 43.9243 31.5112 43.0511 31.4935 42.0711C31.4579 39.6119 31.4757 39.6476 30.5166 39.7901C29.8239 39.8792 29.7351 39.8614 29.7351 39.5406ZM36.8751 40.6989C37.2126 39.6476 38.3849 38.7031 39.7703 38.3645C39.9656 38.3289 40.1432 38.2754 40.1788 38.2576C40.3919 38.1863 40.9247 38.6675 40.9247 38.9348C40.9247 39.3446 40.5873 39.4872 39.6814 39.4872C39.1486 39.4872 38.8289 39.6297 38.3493 40.0396C37.3192 40.9662 37.5323 41.1801 39.4328 41.1088C41.3155 41.0553 41.6352 41.2335 41.6352 42.3205C41.6352 42.8551 41.5109 43.1046 40.978 43.6036C40.1965 44.3342 39.5216 44.6549 38.7756 44.6549C38.0119 44.6549 37.1949 44.1916 37.1949 43.7461C37.1949 43.2472 37.6211 43.1402 38.2428 43.5145C38.7579 43.8174 38.7934 43.8174 39.4861 43.5145C39.8768 43.3363 40.3741 42.9977 40.5695 42.7839L40.9603 42.374L40.4985 42.0711C40.0544 41.7681 39.6104 41.7681 38.4026 42.0711C37.2304 42.374 36.5199 41.7325 36.8751 40.6989ZM24.4067 44.3876C24.4067 43.7639 25.8809 40.7702 26.8045 39.4872C27.2485 38.8813 27.7103 38.418 27.8169 38.4536C28.0833 38.5427 28.6694 40.1822 28.6694 40.8593C28.6694 41.1801 28.7937 41.8038 28.9536 42.2493C29.2378 43.1224 29.2378 44.5837 28.9358 44.5302C28.847 44.5124 28.7049 44.2451 28.6161 43.9421C28.5451 43.6392 28.3675 43.3541 28.2254 43.3006C27.7813 43.1224 25.6677 43.9421 25.348 44.4055C24.975 44.9757 24.4067 44.9757 24.4067 44.3876ZM25.9874 50.09C26.2361 49.6979 26.6268 49.1099 26.8577 48.7891C27.3551 48.112 27.9234 48.0407 28.03 48.6109C28.0655 48.8426 28.1898 49.4128 28.3142 49.9118C28.4207 50.3929 28.5806 51.1948 28.6516 51.6938C28.7227 52.1749 28.8825 52.8877 29.0246 53.2441C29.2022 53.743 29.22 53.9747 29.0779 54.1173C28.7582 54.438 28.3142 54.1529 28.3142 53.654C28.3142 53.0481 27.9589 52.9412 26.9288 53.2085C25.7388 53.5292 25.1526 53.8678 25.0283 54.2776C24.975 54.4737 24.7974 54.634 24.6731 54.634C24.2468 54.634 24.1758 53.8321 24.4955 53.0837C25.348 51.1948 25.5789 50.7493 25.9874 50.09ZM32.2927 63.6509C32.1684 63.1341 32.3282 58.0911 32.4881 57.8416C32.7723 57.3961 33.0387 58.0376 33.0209 59.0355C33.0032 59.6058 32.9676 60.9779 32.9499 62.0649C32.9321 63.7222 32.8788 64.0786 32.6657 64.0786C32.5236 64.0786 32.3638 63.8825 32.2927 63.6509ZM34.353 58.5722C34.4241 58.4297 34.9214 58.1802 35.4365 58.002C35.9693 57.8238 36.6798 57.6991 37.0172 57.7169C37.5501 57.7525 37.6389 57.806 37.6389 58.198C37.6389 58.6079 37.5678 58.6435 36.6442 58.7326C35.4187 58.8395 35.028 59.1425 35.099 59.8731C35.1345 60.3186 35.2233 60.4077 35.5075 60.3364C35.7029 60.3008 36.218 60.2651 36.662 60.2473C37.6034 60.2473 37.781 60.675 36.9284 60.9244C36.6442 61.0135 36.1114 61.2096 35.7739 61.3699C35.2411 61.6194 35.1523 61.7798 35.099 62.3322C35.0457 62.9737 35.0635 63.0094 35.543 63.0094C35.8095 62.9916 36.2357 62.8846 36.4844 62.7421C36.7331 62.5995 37.1593 62.4926 37.4257 62.4748C38.225 62.4748 37.9408 62.9916 36.9284 63.4014C36.4489 63.5974 35.7917 63.8825 35.472 64.0429C35.028 64.2746 34.8148 64.2746 34.4596 64.1142L34.0156 63.9182L34.1044 61.3699C34.1577 59.98 34.2642 58.7148 34.353 58.5722ZM38.7934 58.6613C38.7934 58.3406 38.9532 58.2158 39.6459 57.9842C40.1077 57.8416 40.9958 57.6991 41.6174 57.6812C42.5765 57.6634 42.843 57.7347 43.1804 58.0555C44.0685 58.893 43.3758 60.3899 41.5997 61.5125C40.7294 62.0649 40.3919 62.0649 40.3919 61.4947C40.3919 61.1739 40.5162 60.9957 40.8715 60.8532C41.1201 60.7641 41.724 60.4255 42.2036 60.1226C42.843 59.6949 43.0561 59.4632 43.0206 59.1959C42.9673 58.8573 42.8252 58.8217 41.6885 58.7682C40.8359 58.7326 40.1965 58.8039 39.7703 58.9999C39.0065 59.3028 38.7934 59.2316 38.7934 58.6613ZM10.393 60.4255C10.837 59.5701 11.6895 58.6435 12.4177 58.1802C13.0927 57.7525 13.6078 57.7525 14.1228 58.1802C14.4781 58.4653 14.4958 58.5544 14.3005 58.8039C14.1228 59.0177 13.9807 59.0355 13.7321 58.893C13.3236 58.6791 12.9328 58.8752 11.9382 59.7662C11.1034 60.5146 10.5173 61.6016 10.5883 62.2431C10.6239 62.4926 10.8547 62.8668 11.1389 63.0806L11.6185 63.437L12.7019 62.8668C13.2881 62.546 13.8919 62.2966 14.034 62.2966C14.4958 62.2966 14.3005 62.7955 13.6255 63.3301C12.3467 64.3102 11.2633 64.435 10.4285 63.6687C9.86011 63.1697 9.86011 61.4412 10.393 60.4255ZM15.526 59.98C16.1121 58.9643 16.3785 58.697 17.16 58.3049C18.7408 57.503 19.6644 57.7882 20.3038 59.2672C20.5169 59.7483 20.7656 60.1582 20.8544 60.1582C20.9432 60.1582 21.1741 59.9444 21.3695 59.6592C22.4529 58.198 23.9094 57.5209 25.0106 57.9485C25.4368 58.1089 25.9519 59.089 26.0762 60.0156C26.2894 61.4947 25.348 63.0094 23.785 63.7043C22.5595 64.2568 21.8135 64.2033 21.1919 63.5261C20.9077 63.2232 20.6768 62.8312 20.6768 62.653C20.6768 61.7263 20.4636 61.7085 19.5401 62.6173C18.5809 63.544 17.4975 64.0786 16.5206 64.0786C16.0766 64.0786 15.8102 63.936 15.3839 63.4549C14.5491 62.5461 14.5846 61.5838 15.526 59.98ZM27.6925 60.372C27.8879 60.3364 28.5273 59.8018 29.1134 59.1781C29.8061 58.4297 30.3034 58.0376 30.5166 58.0733C31.1382 58.1446 31.0139 58.5366 30.0193 59.588C29.1134 60.5324 28.7582 61.2274 29.1845 61.2274C29.4864 61.2274 31.156 62.653 31.156 62.9203C31.156 63.3123 30.6409 63.241 30.0193 62.7777C29.3443 62.2788 28.5806 61.9402 28.1366 61.9402C27.6748 61.9402 27.2485 62.5995 27.2485 63.3123C27.2485 63.7578 27.1774 63.9004 26.911 63.9004C26.6268 63.9004 26.5736 63.7043 26.4847 61.9758C26.3959 60.1047 26.5913 58.3762 26.8933 58.3762C27.1952 58.3762 27.4261 59.0355 27.3728 59.7483C27.3373 60.3364 27.3906 60.4255 27.6925 60.372ZM41.28 63.7222C40.9958 64.2389 40.4985 64.0964 40.4274 63.4905C40.3741 63.0806 40.4274 63.0094 40.8182 63.0094C41.3688 63.0094 41.5286 63.2588 41.28 63.7222Z" fill="#F9F8F6"/>
<path d="M27.6925 50.4642C27.8346 50.8206 27.9589 51.3374 27.9589 51.6047C27.9589 52.068 27.8879 52.1214 27.0531 52.2284C26.538 52.2996 26.0762 52.2818 25.9874 52.1927C25.7032 51.9076 26.8933 49.894 27.3728 49.8227C27.4083 49.8227 27.5504 50.1078 27.6925 50.4642Z" fill="#F9F8F6"/>
<path d="M27.8701 40.4495C28.0477 40.7168 28.1366 41.1622 28.101 41.5543C28.0477 42.178 28.0122 42.2136 27.1597 42.4453C25.7921 42.7839 25.7743 42.6591 26.9465 40.592C27.3373 39.9149 27.4971 39.8792 27.8701 40.4495Z" fill="#F9F8F6"/>
<path d="M25.277 59.1603L25.2785 59.1619C25.6678 59.588 25.6851 59.607 25.4013 60.5681C24.9217 62.2075 24.0337 63.0094 22.6483 63.0094C21.7425 63.0094 21.2096 62.4035 21.2096 61.3343C21.2274 60.4968 21.5116 60.0691 22.6483 59.285C23.6607 58.59 24.6909 58.5366 25.277 59.1603Z" fill="#F9F8F6"/>
<path d="M19.4335 59.0712C20.0018 59.5167 19.9841 60.4255 19.3624 61.4769C18.7586 62.4926 17.9415 63.0094 16.8936 63.0094C16.1121 63.0094 16.0411 62.9737 15.7214 62.3144C15.2951 61.4769 15.4372 60.7284 16.1832 59.9265C17.3021 58.7326 18.5632 58.4118 19.4335 59.0712Z" fill="#F9F8F6"/>
<path fill-rule="evenodd" clip-rule="evenodd" d="M134.456 19.8497C136.801 22.0416 137.191 22.3801 137.476 22.3801C137.556 22.3801 137.616 22.3827 137.653 22.3552C137.753 22.2802 137.687 21.9812 137.44 20.7942C137.298 20.0814 137.582 19.9745 138.541 20.4021C139.003 20.616 139.536 20.7763 139.749 20.7763C140.14 20.7763 140.85 21.4 142.147 22.8969C142.875 23.7523 143.23 23.7523 143.23 22.9147C143.23 22.6474 143.283 22.291 143.337 22.1307C143.426 21.8812 143.497 21.899 143.887 22.2019C144.136 22.398 144.527 22.5583 144.74 22.5583C145.202 22.5583 145.61 22.986 145.841 23.6988C145.93 24.0017 146.09 24.2512 146.196 24.2869C146.534 24.4116 146.96 23.8057 146.96 23.2177C146.96 22.5049 147.138 21.8455 147.315 21.8455C147.404 21.8455 147.599 22.2198 147.777 22.6831C148.044 23.4137 148.097 24.3047 148.168 28.9913C148.221 34.0343 148.203 34.4798 147.901 34.9788C147.209 36.1192 145.291 37.3488 144.225 37.3488C143.834 37.3488 143.408 37.1706 142.964 36.8142C142.538 36.4756 142.093 36.2796 141.72 36.2796C141.419 36.2796 140.761 36.1549 140.282 36.0123C139.802 35.8697 139.074 35.745 138.683 35.745C138.275 35.745 137.6 35.6203 137.191 35.4777C136.783 35.3352 136.179 35.2104 135.877 35.2104C135.575 35.2104 134.936 35.0857 134.456 34.9431C133.923 34.7827 132.858 34.6758 131.739 34.6758C130.211 34.6758 129.856 34.7293 129.589 34.9966C128.95 35.6381 128.115 37.331 128.026 38.1863C127.938 39.0417 127.938 39.0595 128.968 40.1109C130.353 41.5543 132.325 43.1581 133.195 43.5857C133.586 43.7639 134.403 43.9778 135.007 44.049C136.179 44.1738 137.511 43.8352 139.5 42.9264C141.456 42.0261 141.886 41.8148 142.162 41.9411C142.252 41.9822 142.326 42.0593 142.431 42.1601C142.644 42.3562 142.857 42.5165 142.928 42.5165C142.982 42.5165 143.248 42.0532 143.514 41.483C143.781 40.9306 144.118 40.3247 144.26 40.1465C144.633 39.7188 145.113 39.7723 145.255 40.2356C145.468 41.0553 145.362 44.4589 145.077 45.6707C144.864 46.5616 144.811 47.5774 144.846 49.5554C144.882 51.0166 144.846 52.3175 144.775 52.4422C144.616 52.6917 143.301 52.0145 142.395 51.2304C142.005 50.8919 141.525 50.6959 140.903 50.6068C140.406 50.5355 139.962 50.3929 139.927 50.2682C139.873 50.1434 139.962 49.7514 140.104 49.395L140.388 48.7357L139.909 48.7891C139.358 48.8426 138.452 50.0187 138.435 50.6602C138.435 50.981 138.63 51.1057 139.554 51.3908C140.157 51.569 140.655 51.8007 140.655 51.8898C140.655 51.9789 140.424 52.1571 140.157 52.2818C139.5 52.6026 139.554 52.9768 140.371 53.6718C140.744 53.9925 141.152 54.5093 141.276 54.8122C141.401 55.0974 141.543 55.3468 141.614 55.3468C141.667 55.3468 141.827 55.4181 141.951 55.4894C142.129 55.6141 142.111 55.8636 141.88 56.7902C141.49 58.3227 141.134 58.6791 139.891 58.7861C136.41 59.0712 134.438 59.3207 133.106 59.6414C130.016 60.3542 129.927 60.4077 130.353 60.9779C130.584 61.2987 130.886 61.3165 135.362 61.3165C137.973 61.3165 140.317 61.2452 140.548 61.1561C140.957 61.0135 140.975 61.0314 140.868 61.6729C140.815 62.0293 140.602 62.653 140.388 63.0272C140.122 63.544 140.033 64.0786 140.033 65.023C140.033 66.413 139.589 69.4423 139.323 69.9591C139.234 70.1373 138.772 70.5293 138.293 70.8323C137.493 71.3491 137.316 71.3847 135.824 71.3847C132.822 71.3847 131.579 70.4937 123.835 62.849C121.153 60.1938 118.648 57.8238 118.275 57.5565C117.387 56.9684 116.055 55.6141 116.038 55.3112C115.984 54.438 116.126 53.2263 116.34 52.8164C116.482 52.5491 116.588 51.8185 116.588 51.1235C116.588 50.4464 116.695 49.4663 116.837 48.9317C117.245 47.2744 117.352 45.3321 117.068 44.6371C116.908 44.2272 116.872 43.8887 116.961 43.6214C117.068 43.3184 117.014 42.9977 116.748 42.4987C116.499 42.0176 116.428 41.6077 116.499 41.2692C116.641 40.6276 118.577 38.4893 118.862 38.6675C118.968 38.7209 119.11 39.0773 119.181 39.4515C119.231 39.7824 119.418 40.5893 119.587 41.3163L119.625 41.483C119.803 42.2314 119.963 43.265 119.963 43.7639C119.963 45.0648 120.407 46.4013 121.1 47.2388C121.686 47.9338 121.721 47.9338 122.041 47.6308C122.236 47.4705 122.467 47.3279 122.556 47.3279C122.822 47.3279 123.48 48.2724 123.977 49.3415C124.368 50.1969 124.403 50.482 124.403 53.0659C124.403 55.6676 124.385 55.8814 124.048 56.1131C123.337 56.612 122.591 60.6928 123.213 60.6928C123.48 60.6928 124.581 57.2357 124.581 56.3804C124.581 56.1131 124.794 55.6676 125.078 55.3647C125.646 54.7231 126.108 53.5114 126.268 52.2284C126.392 51.2304 125.966 49.591 124.776 46.526C123.444 43.069 122.591 40.8237 122.449 40.2891C122.361 39.9861 122.183 39.4337 122.023 39.0417C121.597 37.919 121.686 37.0993 122.378 35.4242C123.266 33.2859 123.568 32.6978 123.835 32.5909C123.959 32.5374 124.563 32.7513 125.167 33.072C126.481 33.7492 126.908 33.7135 127.121 32.9829C127.204 32.6978 127.382 32.2389 127.507 31.9185L127.529 31.8603C127.689 31.4861 127.778 30.5773 127.778 29.2229C127.778 26.9955 127.458 25.356 126.623 23.3602C126.392 22.7722 126.179 22.1485 126.179 21.9703C126.179 21.4891 126.677 21.4 127.121 21.8099C127.547 22.2019 129.572 23.2711 129.891 23.2711C130.211 23.2711 130.122 22.6474 129.732 22.1485C129.376 21.6852 129.27 21.0436 129.518 20.8833C129.803 20.7051 131.224 21.5961 132.414 22.7187C133.248 23.4671 133.728 23.8057 133.923 23.7344C134.243 23.6097 134.225 23.5206 133.639 21.5782C133.106 19.8854 133 18.9944 133.302 18.9944C133.444 18.9944 133.959 19.3864 134.456 19.8497ZM142.058 31.8247C144.1 31.6821 144.456 31.4861 145.006 30.0605C145.29 29.3477 145.539 28.9735 145.735 28.9735C145.983 28.9735 146.054 29.223 146.108 30.4347C146.196 32.0919 146.125 32.3414 145.415 32.8226C145.006 33.1077 144.616 33.1611 143.141 33.1433C142.165 33.1255 141.152 33.0364 140.868 32.9117C140.371 32.7156 140.069 32.2702 140.282 32.0563C140.353 31.985 141.152 31.8781 142.058 31.8247Z" fill="#F9F8F6"/>
<path d="M151.045 24.269C151.143 24.2423 151.272 24.2022 151.4 24.1621C151.529 24.122 151.658 24.0819 151.756 24.0552C152.2 23.9126 152.235 24.1265 152.377 27.1915C152.466 29.1517 152.431 29.6684 152.217 29.9536C152.075 30.1496 151.933 30.2743 151.898 30.2209C151.88 30.1941 151.8 30.0337 151.682 29.7976C151.565 29.5615 151.409 29.2497 151.241 28.92C150.903 28.2607 150.548 27.7439 150.441 27.7795C150.051 27.9043 149.926 30.4525 150.264 31.6821C150.317 31.8603 150.654 32.0741 151.063 32.181C152.271 32.5196 152.146 33.4997 150.583 35.5312C150.086 36.1905 149.784 36.4043 149.127 36.5825C148.771 36.6786 148.437 36.7535 148.27 36.791C148.219 36.8022 148.184 36.8101 148.168 36.8142C147.866 36.832 148.044 36.244 148.559 35.549C149.198 34.658 149.34 33.6601 149.038 32.2701C148.914 31.6821 148.878 30.9515 148.932 30.6664C149.003 30.3634 149.056 29.312 149.074 28.2963C149.091 27.1202 149.18 26.247 149.358 25.8194C149.5 25.4808 149.624 24.8571 149.624 24.4294C149.624 23.4671 149.766 23.3602 150.281 23.9126C150.566 24.2334 150.814 24.3403 151.045 24.269Z" fill="#F9F8F6"/>
<path d="M148.292 44.8153C148.132 45.3677 147.919 45.938 147.83 46.0805C147.742 46.2231 147.599 46.5082 147.511 46.7042C147.422 46.9002 147.191 47.221 146.978 47.3992C146.267 48.0407 146.445 47.417 147.901 44.0669C148.203 43.3541 148.292 43.265 148.434 43.5145C148.559 43.7283 148.505 44.1381 148.292 44.8153Z" fill="#F9F8F6"/>
<path d="M142.822 53.6896C142.928 53.9747 142.538 55.1686 142.324 55.1686C142.236 55.1686 142.165 55.0261 142.165 54.8479C142.165 54.6875 141.969 54.2064 141.738 53.7965C141.454 53.2976 141.383 53.0303 141.507 52.9768C141.774 52.8877 142.697 53.4045 142.822 53.6896Z" fill="#F9F8F6"/>
<path d="M144.065 54.9192C143.905 55.2577 143.763 55.6854 143.763 55.8636C143.763 56.0418 143.639 56.2913 143.497 56.416C143.355 56.5408 143.23 56.7902 143.23 56.9684C143.23 57.3783 142.893 57.5921 142.768 57.2357C142.715 57.0932 142.875 56.4517 143.124 55.8101C143.372 55.1864 143.585 54.5093 143.585 54.3311C143.585 54.1351 143.692 53.8856 143.799 53.7787C144.207 53.3688 144.402 54.1885 144.065 54.9192Z" fill="#F9F8F6"/>
<path d="M139.856 60.0691C139.856 60.2116 139.625 60.372 139.287 60.4255C138.435 60.5859 136.037 60.4611 136.037 60.2473C136.037 59.9978 136.889 59.8552 138.488 59.8196C139.571 59.8018 139.856 59.8553 139.856 60.0691Z" fill="#F9F8F6"/>
<path d="M148.505 39.5763C148.026 40.0039 147.138 40.1822 147.138 39.8792C147.138 39.6832 148.203 39.1842 148.647 39.1664C148.967 39.1486 148.949 39.2021 148.505 39.5763Z" fill="#F9F8F6"/>
<path d="M146.818 44.2272C146.605 44.6193 146.409 44.2985 146.552 43.7818C146.64 43.4254 146.676 43.4075 146.818 43.657C146.907 43.8174 146.907 44.0669 146.818 44.2272Z" fill="#F9F8F6"/>
<path d="M49.8942 5.09489C50.4804 5.18399 52.0434 5.30873 53.3577 5.36219C54.672 5.41564 56.235 5.54038 56.8212 5.6473C57.4073 5.7364 59.2012 5.89678 60.8175 5.98588C66.7142 6.32446 69.2541 6.52047 70.2132 6.69867C70.7461 6.78777 71.865 6.87687 72.6998 6.87687C73.5346 6.87687 75.0266 7.00161 76.0034 7.14417C76.9803 7.28673 78.7209 7.41147 79.8577 7.41147C82.0245 7.41147 82.6995 7.51838 82.2732 7.78568C82.1489 7.87478 80.8878 7.94606 79.4669 7.94606C78.046 7.94606 76.0567 8.0708 75.0266 8.21336C73.9964 8.35592 72.2735 8.48066 71.1901 8.48066C70.1067 8.48066 68.9877 8.55194 68.7035 8.65886C68.4193 8.74796 67.549 8.90833 66.7675 9.01525C64.8315 9.26473 63.2152 9.49639 62.1496 9.71023C61.9065 9.75539 61.4763 9.83261 60.9839 9.92099C60.5049 10.007 59.9671 10.1035 59.4854 10.1914C54.4767 11.0289 53.2334 11.3497 52.9137 11.8664C52.736 12.1515 53.2511 12.2585 53.8195 12.0268C54.1037 11.9199 55.5068 11.7951 56.9455 11.7417C59.0058 11.6704 59.7695 11.7239 60.5333 11.9377C61.0661 12.0981 61.7233 12.2228 62.0075 12.2228C62.2739 12.2228 62.86 12.3297 63.3041 12.4723C65.098 13.0604 65.9683 13.292 66.4478 13.292C66.7142 13.3098 67.1405 13.4168 67.3892 13.5593C67.6378 13.7019 68.0641 13.8088 68.3305 13.8266C68.6147 13.8266 69.2008 13.9335 69.6626 14.0761C70.1244 14.2186 71.1368 14.5038 71.9183 14.6998C74.4227 15.3769 74.7601 15.4839 75.1686 15.7333C75.3818 15.8581 75.5594 16.0363 75.5594 16.1254C75.5594 16.2145 75.1864 16.5709 74.7246 16.9094C73.9609 17.4619 73.3392 17.8183 70.7638 19.2082C69.4495 19.921 68.7035 20.3665 65.3999 22.3623C64.1921 23.0929 62.5758 24.1087 61.7943 24.6076C61.0128 25.1244 59.3788 26.1045 58.171 26.8173C55.7555 28.2072 55.5956 28.225 55.3825 27.0311C55.2582 26.3718 54.7786 24.4116 54.4234 23.182C54.376 23.0078 54.3146 22.7913 54.2532 22.5748C54.1765 22.3042 54.0997 22.0336 54.0504 21.8455C52.8781 17.1589 51.5993 13.5771 50.5159 11.9555C50.4429 11.831 50.3489 11.6764 50.2524 11.5177C50.1141 11.2902 49.9706 11.0543 49.8765 10.8863C49.3614 9.9597 48.8641 9.37165 47.0169 7.42929C46.0045 6.37792 45.1875 5.38 45.1875 5.21963C45.1875 4.95233 45.4184 4.91669 47.0169 4.91669C48.0115 4.91669 49.3081 5.00579 49.8942 5.09489Z" fill="#F9F8F6"/>
<path d="M70.231 25.8194C70.231 25.9619 69.7692 26.3005 69.2186 26.5856C68.6502 26.8707 67.7444 27.3875 67.2116 27.7439C66.6787 28.0825 65.7729 28.6705 65.2223 29.0447C64.6717 29.4011 64.1566 29.7754 64.1033 29.8645C64.0323 29.9714 63.2153 30.6664 62.2739 31.4148C61.3325 32.1632 59.8406 33.375 58.988 34.1056C57.2652 35.5668 56.91 35.6381 56.91 34.5333C56.91 34.159 56.7856 33.4462 56.6435 32.9651C56.5015 32.484 56.3771 31.6643 56.3771 31.1475V30.2209L57.3185 29.615C58.8815 28.6171 61.5279 27.4231 63.2152 26.942C67.8332 25.6412 70.231 25.2669 70.231 25.8194Z" fill="#F9F8F6"/>
<path d="M75.5594 27.3697C75.5594 27.4588 75.0798 27.9221 74.5115 28.3854C70.8526 31.3435 67.7622 34.3016 62.9488 39.4694L62.9428 39.4758C62.941 39.4777 62.9393 39.4796 62.9375 39.4815C61.627 40.8852 60.3193 42.2858 60.0182 42.6056C59.9491 42.6793 59.859 42.7751 59.7555 42.8851C59.4335 43.2274 58.9823 43.7071 58.6328 44.0847C58.171 44.6015 57.7092 45.0113 57.6204 45.0113C57.5882 45.0113 57.5608 45.0158 57.5376 45.0079C57.4077 44.9638 57.41 44.5306 57.425 40.7346L57.4428 37.0815L58.0289 36.6004C58.3309 36.3331 59.1479 35.7272 59.8406 35.2639C60.5155 34.8006 61.1905 34.3016 61.3325 34.1769C62.0075 33.5353 64.3697 32.1098 66.5011 31.0406C67.8154 30.3812 69.1298 29.7219 69.3962 29.5793C69.6804 29.4546 69.9823 29.3299 70.0711 29.3299C70.1777 29.3299 70.9947 28.9735 71.8828 28.5458L71.9053 28.5352C74.4245 27.351 74.7259 27.2093 75.1686 27.2093C75.3818 27.1915 75.5594 27.2628 75.5594 27.3697Z" fill="#F9F8F6"/>
<path d="M62.0608 42.8729C62.0608 43.0333 61.0128 44.2807 59.734 45.635C59.361 46.0271 58.7394 46.7042 58.3486 47.1497C57.7803 47.7912 57.6027 47.8981 57.425 47.7378C57.0698 47.3814 57.5139 46.7398 59.5564 44.6193C61.1905 42.9086 62.0608 42.3027 62.0608 42.8729Z" fill="#F9F8F6"/>
<path d="M106.802 46.6686C108.098 47.809 109.43 50.2147 110.532 53.3866C110.675 53.7856 110.819 54.1984 110.924 54.5006C110.988 54.6843 111.038 54.8272 111.064 54.9013C111.455 55.9171 111.668 56.5586 111.793 57.1288C111.864 57.4674 112.023 58.0198 112.13 58.3227C112.404 59.1465 112.547 59.5696 112.677 59.9966C112.842 60.5394 112.988 61.0883 113.356 62.4748C113.551 63.2054 113.871 64.1855 114.084 64.6488C114.51 65.6467 114.741 66.7515 114.528 66.7515C114.439 66.7515 113.8 66.1456 113.125 65.415C111.935 64.132 111.437 63.8113 111.437 64.3102C111.437 64.5597 113.249 67.001 114.102 67.9098C114.368 68.1949 115.185 69.3176 115.895 70.4046C116.606 71.4738 117.476 72.7212 117.831 73.1667C118.187 73.6122 118.72 74.3606 118.986 74.8596C119.27 75.3407 119.643 75.9466 119.838 76.196C120.016 76.4455 120.691 77.5147 121.33 78.6017C123.124 81.6311 124.776 84.0368 125.504 84.6426C125.86 84.9456 126.499 85.3554 126.925 85.5693C129.803 86.9771 130.531 87.2978 131.952 87.7611C132.84 88.0462 133.834 88.3314 134.172 88.4026C134.509 88.4739 134.989 88.6343 135.238 88.759C135.664 88.9907 135.664 89.0085 135.326 89.1332C135.159 89.1943 134.653 89.412 134.121 89.6411C134.032 89.6796 133.942 89.7185 133.852 89.7569C133.231 90.0421 132.609 90.2737 132.485 90.2737C131.898 90.2737 130.779 89.6678 130.371 89.1154C129.234 87.6364 128.524 87.1553 126.268 86.3355C125.096 85.9079 125.043 85.9079 123.036 86.5494C120.886 87.2265 117.032 89.1867 115.949 90.149C114.581 91.3429 114.102 92.7863 114.741 93.7664C115.132 94.3545 114.919 94.5148 114.297 94.1406C113.658 93.7664 113.409 93.7664 112.503 94.1228C111.544 94.5148 110.727 95.6375 110.727 96.5641C110.727 97.0809 110.603 97.3838 110.212 97.7759L109.697 98.2926H105.008C102.432 98.2926 99.2175 98.3639 97.8499 98.4708C96.4823 98.5599 89.0225 98.6847 81.2963 98.756C68.366 98.8629 67.2116 98.8629 67.105 98.5956C67.0162 98.3639 68.4904 95.1207 69.5205 93.3031C69.5429 93.2583 69.5933 93.1589 69.6624 93.0226C69.8132 92.7253 70.0529 92.2527 70.2843 91.7884C71.4388 89.4362 73.3037 85.9079 73.6057 85.4624C73.7655 85.2129 74.4049 84.0902 75.0266 82.9676C76.4297 80.3837 79.3781 75.4833 81.0832 72.8637C81.8114 71.7589 82.8593 70.1551 83.4099 69.2998C85.2749 66.413 86.8201 64.1498 87.9036 62.7599C91.6334 57.9307 96.4823 52.7986 97.2815 52.7986C97.7078 52.7986 98.3472 53.1906 100.425 54.7053C102.148 55.9705 103.445 57.1466 106.66 60.372C108.773 62.5104 109.928 63.544 110.176 63.544C110.514 63.544 110.532 63.4905 110.372 63.1876C110.105 62.6886 104.137 56.4517 102.539 54.9904C101.171 53.743 99.6793 52.6026 99.0577 52.3353C98.0808 51.8898 98.1874 51.6938 101.065 48.8069C102.574 47.2923 104.066 45.9558 104.386 45.8132C105.079 45.5281 105.807 45.7776 106.802 46.6686Z" fill="#F9F8F6"/>
<path d="M111.153 38.5249C111.206 38.6853 111.26 39.2199 111.26 39.7366C111.26 40.2712 111.349 41.1266 111.455 41.6434C111.562 42.178 111.704 43.1224 111.775 43.7639C111.917 44.9757 112.166 46.0449 112.663 47.6665C112.947 48.5931 113.125 48.8069 114.599 49.9474C114.812 50.1256 115.114 50.5711 115.238 50.9453C115.434 51.5512 115.416 51.8541 115.132 53.2619C114.723 55.2221 114.794 55.9349 115.487 56.6655C115.771 56.9684 116.286 57.7347 116.606 58.3762C116.943 59.0177 117.547 60.0334 117.956 60.6571C118.879 62.0471 119.323 63.2054 119.981 65.9496C120.265 67.1257 120.567 68.3197 120.673 68.6226C120.762 68.9077 120.886 69.7809 120.957 70.5293C121.082 71.8836 121.064 71.9015 120.531 72.4361C120.229 72.739 119.856 72.9885 119.679 72.9885C119.075 72.9885 116.872 70.1729 116.588 69.0146C116.428 68.391 116.126 67.5 115.789 66.6624C115.665 66.3595 115.469 65.8071 115.345 65.415C115.221 65.023 115.025 64.4528 114.883 64.1676C114.759 63.8647 114.492 63.0272 114.279 62.2966C114.084 61.566 113.764 60.4433 113.569 59.8018C113.53 59.6609 113.487 59.5089 113.444 59.3527C113.289 58.7974 113.119 58.1893 113.036 57.8416C112.912 57.3961 112.716 56.7724 112.574 56.4517C112.432 56.1309 112.325 55.7389 112.325 55.5963C112.325 55.1508 111.597 52.8699 111.42 52.7451C111.331 52.6917 111.26 52.4957 111.26 52.3175C111.26 51.3552 109.377 47.8803 107.921 46.134C107.21 45.2964 106.66 44.5124 106.695 44.4054C106.731 44.2985 106.997 44.1025 107.281 43.96C107.974 43.6392 108.596 43.0511 108.596 42.7126C108.596 42.57 108.844 42.1958 109.146 41.875C109.661 41.3404 109.661 41.3048 109.377 41.0197C109.182 40.8058 108.951 40.7524 108.702 40.8415C108.489 40.8949 107.903 41.0019 107.406 41.0375C106.393 41.1266 106.162 40.9128 106.873 40.5385C107.086 40.4316 107.459 40.1465 107.707 39.9327C108.276 39.3981 110.372 38.2398 110.745 38.2398C110.905 38.2398 111.1 38.3645 111.153 38.5249Z" fill="#F9F8F6"/>
<path d="M160.992 13.0247C161.826 13.1673 163.549 13.292 164.828 13.292C166.107 13.292 167.599 13.3811 168.114 13.4702C168.647 13.5771 170.476 13.7375 172.181 13.8266C173.886 13.9335 175.858 14.0939 176.533 14.183C177.225 14.2721 178.256 14.3434 178.842 14.3612C179.428 14.3612 180.511 14.4325 181.24 14.5394C182.696 14.7176 187.012 15.074 189.925 15.2344C191.292 15.3057 191.808 15.4126 191.932 15.6086C192.056 15.8046 191.843 16.4283 191.186 17.8361C190.156 19.9923 189.783 20.8654 189.374 21.9346C189.214 22.3267 188.859 23.2533 188.557 23.9839C187.58 26.4252 187.811 25.6768 186 32.7156C184.596 38.2041 184.437 38.9704 184.259 41.6612C184.188 42.9086 184.064 44.0134 183.993 44.1203C183.691 44.6015 183.46 49.7514 183.513 54.741L183.566 60.1047L183.104 60.6571C182.856 60.9601 182.341 61.3878 181.985 61.6016C180.689 62.4035 178.558 64.1142 178.629 64.3102C178.753 64.7379 180.28 64.6488 181.63 64.1498C184.099 63.2588 183.815 63.0985 185.413 66.2526C188.451 72.2222 188.806 72.7212 192.82 76.6594C196.266 80.0451 197.527 81.1321 198.717 81.7737C199.409 82.1479 199.676 82.1657 203.175 82.1479C207.065 82.1301 209.036 81.934 211.221 81.3103C212.109 81.0609 212.571 81.0074 212.695 81.1321C212.872 81.3103 212.819 81.738 212.304 84.5714C212.198 85.106 212.055 86.1039 211.967 86.7989C211.878 87.476 211.736 88.2779 211.629 88.5452C211.523 88.8303 211.434 89.3649 211.434 89.7569C211.434 90.149 211.31 90.7549 211.167 91.1113C211.025 91.4498 210.901 92.0022 210.901 92.3052C210.901 92.6081 210.777 93.1783 210.635 93.5704C210.492 93.9624 210.386 94.5327 210.368 94.8534C210.368 95.2276 210.244 95.4949 210.031 95.6197C209.391 95.9582 206.407 96.083 198.734 96.1364C194.543 96.1543 190.173 96.2612 189.055 96.3681C187.936 96.4572 181.026 96.6176 173.691 96.6889C166.373 96.778 159.18 96.9205 157.706 97.0274C156.249 97.1165 151.827 97.2056 147.901 97.2056C141.649 97.2235 140.744 97.1878 140.495 96.9383C139.927 96.3859 140.211 95.887 141.241 95.6375L141.332 95.6137C141.744 95.5057 142.353 95.346 142.733 95.2633C144.331 94.8534 144.029 94.5861 141.419 94.1941C138.985 93.8199 138.275 93.5348 137.635 92.6794C137.049 91.9131 136.783 90.1668 137.209 89.8995C137.635 89.6322 140.14 89.7213 140.903 90.0242C141.667 90.3272 143.426 90.3094 143.532 89.9886C143.639 89.65 142.697 89.3827 137.635 88.3314C134.563 87.6898 133.461 87.4225 133.071 87.2265C132.893 87.1374 132.591 87.0661 132.378 87.0661C132.183 87.0661 131.792 86.9414 131.543 86.7989C131.277 86.6563 130.708 86.3712 130.264 86.1752C127.405 84.8565 124.279 81.8449 122.538 78.7799C121.046 76.1782 120.691 75.3585 120.673 74.717C120.673 74.0755 120.798 73.9151 122.467 72.3113C123.462 71.3669 124.385 70.3333 124.51 70.0482C124.972 69.0325 126.144 67.9989 126.836 67.9989C127.227 67.9989 129.767 69.7274 129.945 70.1195C130.069 70.3868 131.49 71.3669 132.307 71.7411C133.053 72.0797 133.586 72.1688 135.522 72.24C137.635 72.3113 137.92 72.2757 138.754 71.9193C139.269 71.6876 139.838 71.2956 140.033 71.0283C140.388 70.5115 140.815 68.6404 140.992 66.805C141.046 66.1991 141.205 65.3972 141.348 65.023C141.49 64.6488 141.738 63.8647 141.916 63.2767C142.093 62.6886 142.484 61.6372 142.822 60.9244C143.141 60.2116 143.408 59.481 143.408 59.285C143.408 59.089 143.497 58.8752 143.585 58.8217C143.692 58.7682 143.763 58.5009 143.763 58.2336C143.763 57.9663 143.887 57.5921 144.029 57.4139C144.172 57.2179 144.296 56.9684 144.296 56.8437C144.296 56.719 144.58 56.024 144.918 55.2756C145.521 53.9569 146.196 52.2105 146.374 51.5156C146.587 50.6246 147.635 48.3793 148.328 47.2923C148.754 46.6329 149.091 45.9558 149.091 45.7776C149.091 45.6172 149.198 45.1539 149.34 44.744C149.464 44.352 149.713 43.5501 149.891 42.962C150.175 41.9641 150.672 40.6989 151.063 39.9861C151.152 39.8079 151.223 39.5585 151.223 39.4337C151.223 38.9704 152.146 36.9033 152.608 36.2974C153.478 35.2104 153.869 34.5867 153.869 34.3016C153.887 34.1412 153.994 33.7848 154.136 33.4997C154.313 33.1255 154.42 31.7534 154.509 28.6171C154.669 23.3068 154.669 23.2711 154.509 20.0457C154.402 17.9608 154.438 17.1767 154.669 16.0363C154.828 15.2344 154.953 14.2365 154.953 13.791C154.953 13.3633 155.006 12.9356 155.077 12.8822C155.29 12.6505 159.482 12.7574 160.992 13.0247Z" fill="#F9F8F6"/>
<path d="M115.345 36.7251C115.345 36.8677 115.221 36.9924 115.078 36.9924C114.794 36.9924 114.723 36.7786 114.936 36.5825C115.132 36.3687 115.345 36.44 115.345 36.7251Z" fill="#F9F8F6"/>
<path d="M118.791 32.4305C119.59 33.4284 119.785 33.9274 119.785 35.1213C119.785 36.7607 119.252 36.6182 118.489 34.7649C118.045 33.6423 117.707 31.6464 117.991 31.6464C118.08 31.6464 118.435 32.0028 118.791 32.4305Z" fill="#F9F8F6"/>
<path d="M116.73 34.3551C116.677 34.4798 116.535 34.5867 116.411 34.5867C116.286 34.5867 116.144 34.4798 116.109 34.3551C116.055 34.2303 116.18 34.1412 116.411 34.1412C116.641 34.1412 116.766 34.2303 116.73 34.3551Z" fill="#F9F8F6"/>
<path d="M122.219 66.6981C122.165 66.8763 122.13 66.7337 122.13 66.3951C122.13 66.0566 122.165 65.914 122.219 66.0744C122.254 66.2526 122.254 66.5377 122.219 66.6981Z" fill="#F9F8F6"/>
<path fill-rule="evenodd" clip-rule="evenodd" d="M0.00255465 3.91878C-0.0152067 0.693387 0.0380774 0.443909 0.872862 0.0875123C1.29913 -0.108506 6.5565 0.0518727 8.01293 0.30135C9.06085 0.479549 12.4355 0.711207 18.1014 0.996324C19.8598 1.08542 21.6537 1.2458 22.0977 1.3349C22.5417 1.44182 23.785 1.53092 24.8507 1.53092C25.9341 1.53092 27.1597 1.62002 27.6037 1.72694C28.0477 1.81604 29.8772 1.97642 31.6888 2.06551C33.5005 2.15461 35.2589 2.31499 35.5963 2.42191C35.9338 2.51101 36.9284 2.60011 37.8165 2.60011C38.6868 2.60011 40.2498 2.72485 41.28 2.86741C42.3101 3.00997 44.2284 3.1347 45.5427 3.1347C46.857 3.1347 48.2247 3.2238 48.5621 3.3129C48.8996 3.41982 50.3027 3.54456 51.6704 3.59802C53.038 3.65148 54.5477 3.7584 55.0095 3.8475C55.4713 3.95442 56.9632 4.0257 58.2954 4.0257C59.6275 4.04352 61.3325 4.1148 62.0608 4.22171C62.789 4.31081 64.5296 4.47119 65.9327 4.56029C67.3359 4.64939 68.7213 4.77413 69.041 4.82759C69.3607 4.88105 70.4086 4.95233 71.3855 5.00579C72.3624 5.04143 73.9254 5.14835 74.849 5.25527C75.7725 5.36219 77.5309 5.45128 78.7564 5.45128C79.982 5.45128 81.3319 5.54038 81.7759 5.6473C82.2199 5.75422 83.9783 5.9146 85.6834 6.0037C86.3611 6.03911 87.2072 6.08297 88.0867 6.12856C89.4199 6.19768 90.8299 6.27077 91.8466 6.32446C93.5339 6.43138 95.0614 6.59175 95.2568 6.68085C95.4521 6.78777 96.4645 6.87687 97.5302 6.87687C98.5781 6.87687 100.177 7.00161 101.047 7.14417C101.953 7.28673 103.871 7.41147 105.487 7.41147C107.263 7.42929 108.755 7.51839 109.484 7.67876C110.123 7.82132 111.366 7.94606 112.237 7.94606C113.125 7.94606 114.794 8.0708 115.967 8.21336C117.139 8.35592 119.057 8.48066 120.229 8.48066C121.401 8.49848 122.716 8.56976 123.16 8.67667C123.604 8.76577 125.398 8.92615 127.156 9.01525C135.557 9.46075 137.138 9.56767 137.724 9.72805C138.062 9.81715 139.536 9.90624 141.01 9.90624C142.466 9.90624 144.474 10.031 145.45 10.1735C146.427 10.3161 147.866 10.4408 148.63 10.4408C150.299 10.4408 154.331 10.726 156.729 10.9933C157.652 11.1002 159.73 11.2606 161.347 11.3318C165.343 11.5278 169.659 11.8308 171.4 12.0446C172.181 12.1515 173.797 12.2228 174.97 12.2228C176.16 12.2228 177.758 12.3476 178.522 12.4901C179.286 12.6327 180.671 12.7574 181.595 12.7574C182.518 12.7574 184.081 12.8822 185.058 13.0247C186.035 13.1673 188.042 13.292 189.499 13.292C190.973 13.3098 192.838 13.3989 193.672 13.488C194.507 13.5771 196.23 13.7197 197.509 13.8088C198.788 13.8801 199.942 14.0226 200.067 14.0939C200.191 14.1652 201.487 14.2899 202.979 14.379C204.454 14.4681 207.349 14.6463 209.391 14.7889C210.697 14.8792 212.344 14.9982 213.761 15.1004C214.58 15.1595 215.321 15.213 215.874 15.2522C217.384 15.3413 219.053 15.5195 219.586 15.6086C220.119 15.7155 220.936 15.7868 221.416 15.7868L223.688 15.4834C223.708 15.4778 223.729 15.4749 223.751 15.4749C223.964 15.4749 224 16.5085 224 21.6228C224 26.9331 223.964 27.7706 223.734 27.7706C223.449 27.7706 223.343 28.1092 223.219 29.4635C223.13 30.3545 222.917 31.7088 222.544 33.7403C222.437 34.3283 222.313 35.2193 222.295 35.7183C222.259 36.2172 222.153 36.8409 222.046 37.1082C221.957 37.3755 221.869 37.8388 221.869 38.1418C221.869 38.4269 221.744 39.211 221.602 39.8703C221.336 41.0642 218.947 55.6854 218.698 57.4852C218.627 58.0198 218.45 59.1425 218.29 59.98C218.13 60.8175 217.934 62.1362 217.828 62.9024C217.721 63.6865 217.561 64.4528 217.455 64.631C217.366 64.8092 217.295 65.3081 217.295 65.7358C217.295 66.1635 217.171 66.9119 217.029 67.393C216.887 67.8742 216.762 68.6048 216.762 68.9968C216.762 69.4067 216.638 70.0838 216.496 70.4937C216.354 70.9036 216.229 71.5985 216.229 72.0262C216.229 72.4361 216.141 73.0063 216.034 73.2914C215.927 73.5587 215.768 74.3071 215.697 74.9487C215.626 75.5902 215.466 76.6237 215.341 77.2652C215.235 77.9067 215.075 78.8156 214.986 79.3145C214.955 79.4851 214.914 79.7117 214.87 79.9618C214.788 80.4169 214.693 80.9498 214.613 81.3638C214.364 82.6825 214.205 83.6091 213.849 85.997C213.707 86.9236 213.459 88.367 213.299 89.2045C213.139 90.0421 212.944 91.2004 212.855 91.7884C212.269 96.083 211.878 97.562 211.292 97.7759C211.043 97.8828 205.04 98.0253 197.509 98.1144C171.524 98.4352 157.635 98.649 152.466 98.8272C149.589 98.9342 144.314 99.0945 140.744 99.1836C134.705 99.344 129.945 99.4331 102.201 99.8964C96.3935 99.9855 89.5554 100.146 87.0155 100.253C80.9589 100.52 66.803 100.805 51.1375 100.966C44.2106 101.055 37.2481 101.197 35.6851 101.286C34.1221 101.393 28.847 101.482 23.9626 101.5C19.0783 101.518 14.0873 101.607 12.8618 101.696C9.07861 101.981 0.784055 102.106 0.570918 101.892C0.428827 101.75 0.375543 90.6836 0.393305 63.4192C0.411066 40.9662 0.340021 21.3822 0.215691 16.0541C0.186356 14.4 0.155083 12.6974 0.125713 11.0983C0.06617 7.85649 0.014449 5.04053 0.00255465 3.91878ZM223.253 17.5748L220.901 17.5153C220.137 17.444 218.45 17.3193 217.135 17.2302C215.821 17.1411 214.063 16.9629 213.228 16.8738C212.393 16.7669 210.226 16.5887 208.414 16.4818C206.603 16.3748 204.205 16.2145 203.086 16.1254C201.967 16.0541 199.534 15.9293 197.669 15.8581C194.525 15.7512 194.276 15.769 193.903 16.0719L191.932 15.6086C191.808 15.4126 191.292 15.3057 189.925 15.2344C187.012 15.074 182.696 14.7176 181.24 14.5394C180.511 14.4325 179.428 14.3612 178.842 14.3612C178.256 14.3434 177.225 14.2721 176.533 14.183C175.858 14.0939 173.886 13.9335 172.181 13.8266C170.476 13.7375 168.647 13.5771 168.114 13.4702C167.599 13.3811 166.107 13.292 164.828 13.292C163.549 13.292 161.826 13.1673 160.992 13.0247C159.482 12.7574 155.29 12.6505 155.077 12.8822C155.006 12.9356 154.953 13.3633 154.953 13.791C154.953 14.2365 154.828 15.2344 154.669 16.0363C154.438 17.1767 154.402 17.9608 154.509 20.0457C154.669 23.2711 154.669 23.3068 154.509 28.6171C154.42 31.7534 154.313 33.1255 154.136 33.4997C153.994 33.7848 153.887 34.1412 153.869 34.3016C153.869 34.5867 153.478 35.2104 152.608 36.2974C152.146 36.9033 151.223 38.9704 151.223 39.4337C151.223 39.5585 151.152 39.8079 151.063 39.9861C150.672 40.6989 150.175 41.9641 149.891 42.962C149.713 43.5501 149.464 44.352 149.34 44.744C149.198 45.1539 149.091 45.6172 149.091 45.7776C149.091 45.9558 148.754 46.6329 148.328 47.2923C147.635 48.3793 146.587 50.6246 146.374 51.5156C146.196 52.2105 145.521 53.9569 144.918 55.2756C144.58 56.024 144.296 56.719 144.296 56.8437C144.296 56.9684 144.172 57.2179 144.029 57.4139C143.887 57.5921 143.763 57.9663 143.763 58.2336C143.763 58.5009 143.692 58.7682 143.585 58.8217C143.497 58.8752 143.408 59.089 143.408 59.285C143.408 59.481 143.141 60.2116 142.822 60.9244C142.484 61.6372 142.093 62.6886 141.916 63.2767C141.738 63.8647 141.49 64.6488 141.348 65.023C141.205 65.3972 141.046 66.1991 140.992 66.805C140.815 68.6404 140.388 70.5115 140.033 71.0283C139.838 71.2956 139.269 71.6876 138.754 71.9193C137.92 72.2757 137.635 72.3113 135.522 72.24C133.586 72.1688 133.053 72.0797 132.307 71.7411C131.49 71.3669 130.069 70.3868 129.945 70.1195C129.767 69.7274 127.227 67.9989 126.836 67.9989C126.144 67.9989 124.972 69.0325 124.51 70.0482C124.385 70.3333 123.462 71.3669 122.467 72.3113C120.798 73.9151 120.673 74.0755 120.673 74.717C120.691 75.3585 121.046 76.1782 122.538 78.7799C124.279 81.8449 127.405 84.8565 130.264 86.1752C130.708 86.3712 131.277 86.6563 131.543 86.7989C131.792 86.9414 132.183 87.0661 132.378 87.0661C132.591 87.0661 132.893 87.1374 133.071 87.2265C133.461 87.4225 134.563 87.6898 137.635 88.3314C142.697 89.3827 143.639 89.65 143.532 89.9886C143.426 90.3094 141.667 90.3272 140.903 90.0242C140.14 89.7213 137.635 89.6322 137.209 89.8995C136.783 90.1668 137.049 91.9131 137.635 92.6794C138.275 93.5348 138.985 93.8199 141.419 94.1941C144.029 94.5861 144.331 94.8534 142.733 95.2633C142.353 95.346 141.744 95.5057 141.332 95.6137L141.241 95.6375C140.211 95.887 139.927 96.3859 140.495 96.9383C140.744 97.1878 141.649 97.2235 147.901 97.2056C151.827 97.2056 156.249 97.1165 157.706 97.0274C159.18 96.9205 166.373 96.778 173.691 96.6889C181.026 96.6176 187.936 96.4572 189.055 96.3681C190.173 96.2612 194.543 96.1543 198.734 96.1364C206.407 96.083 209.391 95.9582 210.031 95.6197C210.244 95.4949 210.368 95.2276 210.368 94.8534C210.386 94.5327 210.492 93.9624 210.635 93.5704C210.777 93.1783 210.901 92.6081 210.901 92.3052C210.901 92.0022 211.025 91.4498 211.167 91.1113C211.31 90.7549 211.434 90.149 211.434 89.7569C211.434 89.3649 211.523 88.8303 211.629 88.5452C211.736 88.2779 211.878 87.476 211.967 86.7989C212.055 86.1039 212.198 85.106 212.304 84.5714C212.819 81.738 212.872 81.3103 212.695 81.1321L212.677 79.7956C213.103 79.4571 213.245 78.869 213.92 74.7705C214.116 73.5409 214.364 72.1331 214.453 71.652C214.538 71.2558 214.645 70.6012 214.739 70.0272C214.763 69.8783 214.787 69.7348 214.809 69.6027C214.897 68.9612 215.093 67.7138 215.253 66.8406C215.412 65.9496 215.608 64.6666 215.679 63.9895C215.768 63.2945 215.927 62.5104 216.034 62.2431C216.141 61.958 216.229 61.4412 216.229 61.067C216.229 60.6928 216.354 59.9978 216.496 59.5167C216.638 59.0355 216.762 58.2693 216.762 57.8238C216.762 57.3605 216.887 56.7011 217.029 56.3626C217.171 56.0062 217.295 55.3112 217.295 54.8122C217.295 54.3133 219.098 42.9353 219.204 42.7571C219.293 42.5789 219.453 41.8839 219.542 41.2068C219.572 41.0168 219.609 40.7763 219.65 40.5081C219.755 39.8205 219.889 38.951 220.004 38.2843C220.059 37.921 220.126 37.503 220.192 37.0902C220.294 36.4503 220.394 35.8232 220.448 35.4332C220.493 35.1038 220.572 34.5959 220.656 34.047C220.737 33.5268 220.823 32.9698 220.892 32.4929C221.052 31.5128 221.247 30.105 221.336 29.3744C221.425 28.6438 221.567 27.5924 221.673 27.0578C222.1 24.7591 222.259 23.7433 222.33 22.7454C222.366 22.1574 222.49 21.5337 222.579 21.3555C222.686 21.1773 222.757 20.6427 222.757 20.1616C222.774 19.6982 222.881 18.9854 223.023 18.5934C223.118 18.3302 223.206 17.9386 223.253 17.5748ZM12.5954 2.60011C10.535 2.51101 8.4392 2.36845 7.90636 2.26153C6.52098 1.97642 2.38258 1.99424 2.31153 2.27935C2.25825 2.40409 2.1872 2.77831 2.13392 3.08125C1.99183 3.90096 1.97407 99.3797 2.11616 99.7539C2.1872 99.9142 2.32929 100.075 2.43586 100.128C2.93318 100.306 26.5558 99.8964 28.7582 99.6648C31.0139 99.4331 31.1027 99.4153 32.8078 98.4887C35.472 97.0809 37.9586 95.2276 39.9123 93.214C41.8483 91.236 44.6546 88.3135 45.7736 87.1018C46.9991 85.7653 48.1181 84.9278 48.6332 84.9278C49.0417 84.9278 49.8054 84.4644 49.8054 84.215C49.8054 84.1259 49.5212 83.9655 49.1838 83.8586C48.4733 83.6269 48.2602 83.1458 48.6154 82.5755C48.7575 82.3439 49.0062 81.7202 49.1838 81.1856C49.3614 80.651 49.61 79.9382 49.7344 79.6175C49.8765 79.2967 49.983 78.8334 49.983 78.5839C49.983 78.3522 50.1074 77.8533 50.2495 77.4969C50.3915 77.1583 50.5159 76.695 50.5159 76.499C50.5159 76.1426 50.7823 75.1447 51.4395 72.9885C51.7846 71.8978 51.8782 71.4967 52.551 68.6153L52.6117 68.3553C53.0025 66.7159 53.6241 62.9915 53.8905 60.7462C53.9793 59.98 54.1747 58.5188 54.3346 57.4852C54.4767 56.4517 54.6898 54.7766 54.7786 53.743C54.8674 52.7095 55.0273 51.3552 55.1338 50.7137C55.2226 50.0722 55.3114 48.6644 55.3114 47.5596C55.3114 46.4725 55.4358 44.7975 55.5956 43.853C55.8443 42.374 55.862 41.8038 55.6844 39.6119C55.0983 32.8047 54.4944 29.3833 52.736 23.182C52.3631 21.8634 51.7414 19.529 51.5638 18.7627C51.475 18.3885 51.3329 17.9608 51.2441 17.7826C51.0487 17.3728 50.6935 16.357 50.5336 15.6977C50.0186 13.6662 47.7984 10.2983 45.2763 7.69658C42.3989 4.75631 42.2036 4.64939 39.2374 4.47119C38.2605 4.41773 36.8219 4.29299 36.0404 4.2039C35.2589 4.09698 33.9445 4.0257 33.1097 4.0257C32.275 4.0257 31.2803 3.9366 30.8896 3.8475C30.4988 3.7584 29.2555 3.6693 28.1366 3.6693C26.2716 3.65148 24.7441 3.54456 18.4566 2.93869C17.2844 2.83177 14.6557 2.67139 12.5954 2.60011ZM53.3577 5.36219C52.0434 5.30873 50.4804 5.18399 49.8942 5.09489C49.3081 5.00579 48.0115 4.91669 47.0169 4.91669C45.4184 4.91669 45.1875 4.95233 45.1875 5.21963C45.1875 5.38 46.0045 6.37792 47.0169 7.42929C48.8641 9.37165 49.3614 9.9597 49.8765 10.8863C49.9706 11.0543 50.1141 11.2902 50.2524 11.5177C50.3489 11.6764 50.4429 11.831 50.5159 11.9555C51.5993 13.5771 52.8781 17.1589 54.0504 21.8455C54.0997 22.0336 54.1765 22.3042 54.2532 22.5748C54.3146 22.7913 54.376 23.0078 54.4234 23.182C54.7786 24.4116 55.2582 26.3718 55.3825 27.0311C55.5956 28.225 55.7555 28.2072 58.171 26.8173C59.3788 26.1045 61.0128 25.1244 61.7943 24.6076C62.5758 24.1087 64.1921 23.0929 65.3999 22.3623C68.7035 20.3665 69.4495 19.921 70.7638 19.2082C73.3392 17.8183 73.9609 17.4619 74.7246 16.9094C75.1864 16.5709 75.5594 16.2145 75.5594 16.1254C75.5594 16.0363 75.3818 15.8581 75.1686 15.7333C74.7601 15.4839 74.4227 15.3769 71.9183 14.6998C71.1368 14.5038 70.1244 14.2186 69.6626 14.0761C69.2008 13.9335 68.6147 13.8266 68.3305 13.8266C68.0641 13.8088 67.6378 13.7019 67.3892 13.5593C67.1405 13.4168 66.7142 13.3098 66.4478 13.292C65.9683 13.292 65.098 13.0604 63.3041 12.4723C62.86 12.3297 62.2739 12.2228 62.0075 12.2228C61.7233 12.2228 61.0661 12.0981 60.5333 11.9377C59.7695 11.7239 59.0058 11.6704 56.9455 11.7417C55.5068 11.7951 54.1037 11.9199 53.8195 12.0268C53.2511 12.2585 52.736 12.1515 52.9137 11.8664C53.2334 11.3497 54.4767 11.0289 59.4854 10.1914C59.9671 10.1035 60.5049 10.007 60.9839 9.92099C61.4763 9.83261 61.9065 9.75539 62.1496 9.71023C63.2152 9.49639 64.8315 9.26473 66.7675 9.01525C67.549 8.90833 68.4193 8.74796 68.7035 8.65886C68.9877 8.55194 70.1067 8.48066 71.1901 8.48066C72.2735 8.48066 73.9964 8.35592 75.0266 8.21336C76.0567 8.0708 78.046 7.94606 79.4669 7.94606C80.8878 7.94606 82.1489 7.87478 82.2732 7.78568C82.6995 7.51838 82.0245 7.41147 79.8577 7.41147C78.7209 7.41147 76.9803 7.28673 76.0034 7.14417C75.0266 7.00161 73.5346 6.87687 72.6998 6.87687C71.865 6.87687 70.7461 6.78777 70.2132 6.69867C69.2541 6.52047 66.7142 6.32446 60.8175 5.98588C59.2012 5.89678 57.4073 5.7364 56.8212 5.6473C56.235 5.54038 54.672 5.41564 53.3577 5.36219ZM137.476 22.3801C137.191 22.3801 136.801 22.0416 134.456 19.8497C133.959 19.3864 133.444 18.9944 133.302 18.9944C133 18.9944 133.106 19.8854 133.639 21.5782C134.225 23.5206 134.243 23.6097 133.923 23.7344C133.728 23.8057 133.248 23.4671 132.414 22.7187C131.224 21.5961 129.803 20.7051 129.518 20.8833C129.27 21.0436 129.376 21.6852 129.732 22.1485C130.122 22.6474 130.211 23.2711 129.891 23.2711C129.572 23.2711 127.547 22.2019 127.121 21.8099C126.677 21.4 126.179 21.4891 126.179 21.9703C126.179 22.1485 126.392 22.7722 126.623 23.3602C127.458 25.356 127.778 26.9955 127.778 29.2229C127.778 30.5773 127.689 31.4861 127.529 31.8603L127.507 31.9185C127.382 32.2389 127.204 32.6978 127.121 32.9829C126.908 33.7135 126.481 33.7492 125.167 33.072C124.563 32.7513 123.959 32.5374 123.835 32.5909C123.568 32.6978 123.266 33.2859 122.378 35.4242C121.686 37.0993 121.597 37.919 122.023 39.0417C122.183 39.4337 122.361 39.9861 122.449 40.2891C122.591 40.8237 123.444 43.069 124.776 46.526C125.966 49.591 126.392 51.2304 126.268 52.2284C126.108 53.5114 125.646 54.7231 125.078 55.3647C124.794 55.6676 124.581 56.1131 124.581 56.3804C124.581 57.2357 123.48 60.6928 123.213 60.6928C122.591 60.6928 123.337 56.612 124.048 56.1131C124.385 55.8814 124.403 55.6676 124.403 53.0659C124.403 50.482 124.368 50.1969 123.977 49.3415C123.48 48.2724 122.822 47.3279 122.556 47.3279C122.467 47.3279 122.236 47.4705 122.041 47.6308C121.721 47.9338 121.686 47.9338 121.1 47.2388C120.407 46.4013 119.963 45.0648 119.963 43.7639C119.963 43.265 119.803 42.2314 119.625 41.483L119.587 41.3163C119.418 40.5893 119.231 39.7824 119.181 39.4515C119.11 39.0773 118.968 38.7209 118.862 38.6675C118.577 38.4893 116.641 40.6276 116.499 41.2692C116.428 41.6077 116.499 42.0176 116.748 42.4987C117.014 42.9977 117.068 43.3184 116.961 43.6214C116.872 43.8887 116.908 44.2272 117.068 44.6371C117.352 45.3321 117.245 47.2744 116.837 48.9317C116.695 49.4663 116.588 50.4464 116.588 51.1235C116.588 51.8185 116.482 52.5491 116.34 52.8164C116.126 53.2263 115.984 54.438 116.038 55.3112C116.055 55.6141 117.387 56.9684 118.275 57.5565C118.648 57.8238 121.153 60.1938 123.835 62.849C131.579 70.4937 132.822 71.3847 135.824 71.3847C137.316 71.3847 137.493 71.3491 138.293 70.8323C138.772 70.5293 139.234 70.1373 139.323 69.9591C139.589 69.4423 140.033 66.413 140.033 65.023C140.033 64.0786 140.122 63.544 140.388 63.0272C140.602 62.653 140.815 62.0293 140.868 61.6729C140.975 61.0314 140.957 61.0135 140.548 61.1561C140.317 61.2452 137.973 61.3165 135.362 61.3165C130.886 61.3165 130.584 61.2987 130.353 60.9779C129.927 60.4077 130.016 60.3542 133.106 59.6414C134.438 59.3207 136.41 59.0712 139.891 58.7861C141.134 58.6791 141.49 58.3227 141.88 56.7902C142.111 55.8636 142.129 55.6141 141.951 55.4894C141.827 55.4181 141.667 55.3468 141.614 55.3468C141.543 55.3468 141.401 55.0974 141.276 54.8122C141.152 54.5093 140.744 53.9925 140.371 53.6718C139.554 52.9768 139.5 52.6026 140.157 52.2818C140.424 52.1571 140.655 51.9789 140.655 51.8898C140.655 51.8007 140.157 51.569 139.554 51.3908C138.63 51.1057 138.435 50.981 138.435 50.6602C138.452 50.0187 139.358 48.8426 139.909 48.7891L140.388 48.7357L140.104 49.395C139.962 49.7514 139.873 50.1434 139.927 50.2682C139.962 50.3929 140.406 50.5355 140.903 50.6068C141.525 50.6959 142.005 50.8919 142.395 51.2304C143.301 52.0145 144.616 52.6917 144.775 52.4422C144.846 52.3175 144.882 51.0166 144.846 49.5554C144.811 47.5774 144.864 46.5616 145.077 45.6707C145.362 44.4589 145.468 41.0553 145.255 40.2356C145.113 39.7723 144.633 39.7188 144.26 40.1465C144.118 40.3247 143.781 40.9306 143.514 41.483C143.248 42.0532 142.982 42.5165 142.928 42.5165C142.857 42.5165 142.644 42.3562 142.431 42.1601C142.326 42.0593 142.252 41.9822 142.162 41.9411C141.886 41.8148 141.456 42.0261 139.5 42.9264C137.511 43.8352 136.179 44.1738 135.007 44.049C134.403 43.9778 133.586 43.7639 133.195 43.5857C132.325 43.1581 130.353 41.5543 128.968 40.1109C127.938 39.0595 127.938 39.0417 128.026 38.1863C128.115 37.331 128.95 35.6381 129.589 34.9966C129.856 34.7293 130.211 34.6758 131.739 34.6758C132.858 34.6758 133.923 34.7827 134.456 34.9431C134.936 35.0857 135.575 35.2104 135.877 35.2104C136.179 35.2104 136.783 35.3352 137.191 35.4777C137.6 35.6203 138.275 35.745 138.683 35.745C139.074 35.745 139.802 35.8697 140.282 36.0123C140.761 36.1549 141.419 36.2796 141.72 36.2796C142.093 36.2796 142.538 36.4756 142.964 36.8142C143.408 37.1706 143.834 37.3488 144.225 37.3488C145.291 37.3488 147.209 36.1192 147.901 34.9788C148.203 34.4798 148.221 34.0343 148.168 28.9913C148.097 24.3047 148.044 23.4137 147.777 22.6831C147.599 22.2198 147.404 21.8455 147.315 21.8455C147.138 21.8455 146.96 22.5049 146.96 23.2177C146.96 23.8057 146.534 24.4116 146.196 24.2869C146.09 24.2512 145.93 24.0017 145.841 23.6988C145.61 22.986 145.202 22.5583 144.74 22.5583C144.527 22.5583 144.136 22.398 143.887 22.2019C143.497 21.899 143.426 21.8812 143.337 22.1307C143.283 22.291 143.23 22.6474 143.23 22.9147C143.23 23.7523 142.875 23.7523 142.147 22.8969C140.85 21.4 140.14 20.7763 139.749 20.7763C139.536 20.7763 139.003 20.616 138.541 20.4021C137.582 19.9745 137.298 20.0814 137.44 20.7942C137.687 21.9812 137.753 22.2802 137.653 22.3552C137.616 22.3827 137.556 22.3801 137.476 22.3801ZM151.4 24.1621C151.272 24.2022 151.143 24.2423 151.045 24.269C150.814 24.3403 150.566 24.2334 150.281 23.9126C149.766 23.3602 149.624 23.4671 149.624 24.4294C149.624 24.8571 149.5 25.4808 149.358 25.8194C149.18 26.247 149.091 27.1202 149.074 28.2963C149.056 29.312 149.003 30.3634 148.932 30.6664C148.878 30.9515 148.914 31.6821 149.038 32.2701C149.34 33.6601 149.198 34.658 148.559 35.549C148.044 36.244 147.866 36.832 148.168 36.8142C148.184 36.8101 148.219 36.8022 148.27 36.791C148.437 36.7535 148.771 36.6786 149.127 36.5825C149.784 36.4043 150.086 36.1905 150.583 35.5312C152.146 33.4997 152.271 32.5196 151.063 32.181C150.654 32.0741 150.317 31.8603 150.264 31.6821C149.926 30.4525 150.051 27.9043 150.441 27.7795C150.548 27.7439 150.903 28.2607 151.241 28.92C151.409 29.2497 151.565 29.5615 151.682 29.7976C151.8 30.0337 151.88 30.1941 151.898 30.2209C151.933 30.2743 152.075 30.1496 152.217 29.9536C152.431 29.6684 152.466 29.1517 152.377 27.1915C152.235 24.1265 152.2 23.9126 151.756 24.0552C151.658 24.0819 151.529 24.122 151.4 24.1621ZM69.2186 26.5856C69.7692 26.3005 70.231 25.9619 70.231 25.8194C70.231 25.2669 67.8332 25.6412 63.2152 26.942C61.5279 27.4231 58.8815 28.6171 57.3185 29.615L56.3771 30.2209V31.1475C56.3771 31.6643 56.5015 32.484 56.6435 32.9651C56.7856 33.4462 56.91 34.159 56.91 34.5333C56.91 35.6381 57.2652 35.5668 58.988 34.1056C59.8406 33.375 61.3325 32.1632 62.2739 31.4148C63.2153 30.6664 64.0323 29.9714 64.1033 29.8645C64.1566 29.7754 64.6717 29.4011 65.2223 29.0447C65.7729 28.6705 66.6787 28.0825 67.2116 27.7439C67.7444 27.3875 68.6502 26.8707 69.2186 26.5856ZM74.5115 28.3854C75.0798 27.9221 75.5594 27.4588 75.5594 27.3697C75.5594 27.2628 75.3818 27.1915 75.1686 27.2093C74.7259 27.2093 74.4245 27.351 71.9053 28.5352L71.8828 28.5458C70.9947 28.9735 70.1777 29.3299 70.0711 29.3299C69.9823 29.3299 69.6804 29.4546 69.3962 29.5793C69.1298 29.7219 67.8154 30.3812 66.5011 31.0406C64.3697 32.1098 62.0075 33.5353 61.3325 34.1769C61.1905 34.3016 60.5155 34.8006 59.8406 35.2639C59.1479 35.7272 58.3309 36.3331 58.0289 36.6004L57.4428 37.0815L57.425 40.7346C57.41 44.5306 57.4077 44.9638 57.5376 45.0079C57.5608 45.0158 57.5882 45.0113 57.6204 45.0113C57.7092 45.0113 58.171 44.6015 58.6328 44.0847C58.9823 43.7071 59.4335 43.2274 59.7555 42.8851C59.859 42.7751 59.9491 42.6793 60.0182 42.6056C60.3193 42.2858 61.627 40.8852 62.9375 39.4815L62.9428 39.4758L62.9488 39.4694C67.7622 34.3016 70.8526 31.3435 74.5115 28.3854ZM119.785 35.1213C119.785 33.9274 119.59 33.4284 118.791 32.4305C118.435 32.0028 118.08 31.6464 117.991 31.6464C117.707 31.6464 118.045 33.6423 118.489 34.7649C119.252 36.6182 119.785 36.7607 119.785 35.1213ZM116.411 34.5867C116.535 34.5867 116.677 34.4798 116.73 34.3551C116.766 34.2303 116.641 34.1412 116.411 34.1412C116.18 34.1412 116.055 34.2303 116.109 34.3551C116.144 34.4798 116.286 34.5867 116.411 34.5867ZM115.078 36.9924C115.221 36.9924 115.345 36.8677 115.345 36.7251C115.345 36.44 115.132 36.3687 114.936 36.5825C114.723 36.7786 114.794 36.9924 115.078 36.9924ZM111.26 39.7366C111.26 39.2199 111.206 38.6853 111.153 38.5249C111.1 38.3645 110.905 38.2398 110.745 38.2398C110.372 38.2398 108.276 39.3981 107.707 39.9327C107.459 40.1465 107.086 40.4316 106.873 40.5385C106.162 40.9128 106.393 41.1266 107.406 41.0375C107.903 41.0019 108.489 40.8949 108.702 40.8415C108.951 40.7524 109.182 40.8058 109.377 41.0197C109.661 41.3048 109.661 41.3404 109.146 41.875C108.844 42.1958 108.596 42.57 108.596 42.7126C108.596 43.0511 107.974 43.6392 107.281 43.96C106.997 44.1025 106.731 44.2985 106.695 44.4054C106.66 44.5124 107.21 45.2964 107.921 46.134C109.377 47.8803 111.26 51.3552 111.26 52.3175C111.26 52.4957 111.331 52.6917 111.42 52.7451C111.597 52.8699 112.325 55.1508 112.325 55.5963C112.325 55.7389 112.432 56.1309 112.574 56.4517C112.716 56.7724 112.912 57.3961 113.036 57.8416C113.119 58.1893 113.289 58.7974 113.444 59.3527C113.487 59.5089 113.53 59.6609 113.569 59.8018C113.764 60.4433 114.084 61.566 114.279 62.2966C114.492 63.0272 114.759 63.8647 114.883 64.1676C115.025 64.4528 115.221 65.023 115.345 65.415C115.469 65.8071 115.665 66.3595 115.789 66.6624C116.126 67.5 116.428 68.391 116.588 69.0146C116.872 70.1729 119.075 72.9885 119.679 72.9885C119.856 72.9885 120.229 72.739 120.531 72.4361C121.064 71.9015 121.082 71.8836 120.957 70.5293C120.886 69.7809 120.762 68.9077 120.673 68.6226C120.567 68.3197 120.265 67.1257 119.981 65.9496C119.323 63.2054 118.879 62.0471 117.956 60.6571C117.547 60.0334 116.943 59.0177 116.606 58.3762C116.286 57.7347 115.771 56.9684 115.487 56.6655C114.794 55.9349 114.723 55.2221 115.132 53.2619C115.416 51.8541 115.434 51.5512 115.238 50.9453C115.114 50.5711 114.812 50.1256 114.599 49.9474C113.125 48.8069 112.947 48.5931 112.663 47.6665C112.166 46.0449 111.917 44.9757 111.775 43.7639C111.704 43.1224 111.562 42.178 111.455 41.6434C111.349 41.1266 111.26 40.2712 111.26 39.7366ZM147.138 39.8792C147.138 40.1822 148.026 40.0039 148.505 39.5763C148.949 39.2021 148.967 39.1486 148.647 39.1664C148.203 39.1842 147.138 39.6832 147.138 39.8792ZM59.734 45.635C61.0128 44.2807 62.0608 43.0333 62.0608 42.8729C62.0608 42.3027 61.1905 42.9086 59.5564 44.6193C57.5139 46.7398 57.0698 47.3814 57.425 47.7378C57.6027 47.8981 57.7803 47.7912 58.3486 47.1497C58.7394 46.7042 59.361 46.0271 59.734 45.635ZM147.83 46.0805C147.919 45.938 148.132 45.3677 148.292 44.8153C148.505 44.1381 148.559 43.7283 148.434 43.5145C148.292 43.265 148.203 43.3541 147.901 44.0669C146.445 47.417 146.267 48.0407 146.978 47.3992C147.191 47.221 147.422 46.9002 147.511 46.7042C147.599 46.5082 147.742 46.2231 147.83 46.0805ZM146.552 43.7818C146.409 44.2985 146.605 44.6193 146.818 44.2272C146.907 44.0669 146.907 43.8174 146.818 43.657C146.676 43.4075 146.64 43.4254 146.552 43.7818ZM110.532 53.3866C109.43 50.2147 108.098 47.809 106.802 46.6686C105.807 45.7776 105.079 45.5281 104.386 45.8132C104.066 45.9558 102.574 47.2923 101.065 48.8069C98.1874 51.6938 98.0808 51.8898 99.0577 52.3353C99.6793 52.6026 101.171 53.743 102.539 54.9904C104.137 56.4517 110.105 62.6886 110.372 63.1876C110.532 63.4905 110.514 63.544 110.176 63.544C109.928 63.544 108.773 62.5104 106.66 60.372C103.445 57.1466 102.148 55.9705 100.425 54.7053C98.3472 53.1906 97.7078 52.7986 97.2815 52.7986C96.4823 52.7986 91.6334 57.9307 87.9036 62.7599C86.8201 64.1498 85.2749 66.413 83.4099 69.2998C82.8593 70.1551 81.8114 71.7589 81.0832 72.8637C79.3781 75.4833 76.4297 80.3837 75.0266 82.9676C74.4049 84.0902 73.7655 85.2129 73.6057 85.4624C73.3037 85.9079 71.4388 89.4362 70.2843 91.7884C70.0529 92.2527 69.8132 92.7253 69.6624 93.0226C69.5933 93.1589 69.5429 93.2583 69.5205 93.3031C68.4904 95.1207 67.0162 98.3639 67.105 98.5956C67.2116 98.8629 68.366 98.8629 81.2963 98.756C89.0225 98.6847 96.4823 98.5599 97.8499 98.4708C99.2175 98.3639 102.432 98.2926 105.008 98.2926H109.697L110.212 97.7759C110.603 97.3838 110.727 97.0809 110.727 96.5641C110.727 95.6375 111.544 94.5148 112.503 94.1228C113.409 93.7664 113.658 93.7664 114.297 94.1406C114.919 94.5148 115.132 94.3545 114.741 93.7664C114.102 92.7863 114.581 91.3429 115.949 90.149C117.032 89.1867 120.886 87.2265 123.036 86.5494C125.043 85.9079 125.096 85.9079 126.268 86.3355C128.524 87.1553 129.234 87.6364 130.371 89.1154C130.779 89.6678 131.898 90.2737 132.485 90.2737C132.609 90.2737 133.231 90.0421 133.852 89.7569C133.942 89.7185 134.032 89.6796 134.121 89.6411C134.653 89.412 135.159 89.1943 135.326 89.1332C135.664 89.0085 135.664 88.9907 135.238 88.759C134.989 88.6343 134.509 88.4739 134.172 88.4026C133.834 88.3314 132.84 88.0462 131.952 87.7611C130.531 87.2978 129.803 86.9771 126.925 85.5693C126.499 85.3554 125.86 84.9456 125.504 84.6426C124.776 84.0368 123.124 81.6311 121.33 78.6017C120.691 77.5147 120.016 76.4455 119.838 76.196C119.643 75.9466 119.27 75.3407 118.986 74.8596C118.72 74.3606 118.187 73.6122 117.831 73.1667C117.476 72.7212 116.606 71.4738 115.895 70.4046C115.185 69.3176 114.368 68.1949 114.102 67.9098C113.249 67.001 111.437 64.5597 111.437 64.3102C111.437 63.8113 111.935 64.132 113.125 65.415C113.8 66.1456 114.439 66.7515 114.528 66.7515C114.741 66.7515 114.51 65.6467 114.084 64.6488C113.871 64.1855 113.551 63.2054 113.356 62.4748C112.988 61.0883 112.842 60.5394 112.677 59.9966C112.547 59.5696 112.404 59.1465 112.13 58.3227C112.023 58.0198 111.864 57.4674 111.793 57.1288C111.668 56.5586 111.455 55.9171 111.064 54.9013C111.038 54.8272 110.988 54.6843 110.924 54.5006C110.819 54.1984 110.675 53.7856 110.532 53.3866ZM142.324 55.1686C142.538 55.1686 142.928 53.9747 142.822 53.6896C142.697 53.4045 141.774 52.8877 141.507 52.9768C141.383 53.0303 141.454 53.2976 141.738 53.7965C141.969 54.2064 142.165 54.6875 142.165 54.8479C142.165 55.0261 142.236 55.1686 142.324 55.1686ZM143.763 55.8636C143.763 55.6854 143.905 55.2577 144.065 54.9192C144.402 54.1885 144.207 53.3688 143.799 53.7787C143.692 53.8856 143.585 54.1351 143.585 54.3311C143.585 54.5093 143.372 55.1864 143.124 55.8101C142.875 56.4517 142.715 57.0932 142.768 57.2357C142.893 57.5921 143.23 57.3783 143.23 56.9684C143.23 56.7902 143.355 56.5408 143.497 56.416C143.639 56.2913 143.763 56.0418 143.763 55.8636ZM139.287 60.4255C139.625 60.372 139.856 60.2116 139.856 60.0691C139.856 59.8553 139.571 59.8018 138.488 59.8196C136.889 59.8552 136.037 59.9978 136.037 60.2473C136.037 60.4611 138.435 60.5859 139.287 60.4255ZM122.13 66.3951C122.13 66.7337 122.165 66.8763 122.219 66.6981C122.254 66.5377 122.254 66.2526 122.219 66.0744C122.165 65.914 122.13 66.0566 122.13 66.3951Z" fill="black"/>
<path d="M153.176 88.88C153.176 88.4 153.56 88.084 154.136 88.084C154.652 88.084 154.992 88.372 155.036 88.852H154.744C154.712 88.528 154.492 88.344 154.132 88.344C153.728 88.344 153.464 88.552 153.464 88.876C153.464 89.128 153.612 89.288 153.912 89.364L154.404 89.484C154.852 89.592 155.084 89.848 155.084 90.236C155.084 90.732 154.7 91.048 154.108 91.048C153.552 91.048 153.176 90.756 153.14 90.288H153.436C153.452 90.588 153.716 90.784 154.108 90.784C154.528 90.784 154.796 90.58 154.796 90.252C154.796 89.996 154.652 89.828 154.344 89.756L153.86 89.636C153.412 89.528 153.176 89.272 153.176 88.88ZM155.406 90.032C155.406 89.44 155.822 89.012 156.39 89.012C156.958 89.012 157.374 89.44 157.374 90.032C157.374 90.62 156.958 91.048 156.39 91.048C155.822 91.048 155.406 90.62 155.406 90.032ZM155.686 90.028C155.686 90.484 155.974 90.8 156.39 90.8C156.802 90.8 157.094 90.484 157.094 90.028C157.094 89.58 156.802 89.26 156.39 89.26C155.974 89.26 155.686 89.58 155.686 90.028ZM159.128 89.064H159.404V91H159.164L159.128 90.672C159.02 90.896 158.752 91.048 158.448 91.048C157.992 91.048 157.744 90.736 157.744 90.264V89.06H158.024V90.176C158.024 90.636 158.228 90.8 158.536 90.8C158.908 90.8 159.128 90.552 159.128 90.092V89.064ZM160.991 89.04V89.288H160.839C160.483 89.288 160.255 89.528 160.255 89.896V91H159.979V89.064H160.239L160.259 89.364C160.335 89.156 160.539 89.02 160.811 89.02C160.871 89.02 160.923 89.024 160.991 89.04ZM161.148 90.036C161.148 89.428 161.52 89.012 162.084 89.012C162.532 89.012 162.86 89.272 162.936 89.672H162.66C162.588 89.404 162.356 89.256 162.088 89.256C161.696 89.256 161.42 89.556 161.42 90.032C161.42 90.492 161.676 90.8 162.068 90.8C162.356 90.8 162.588 90.64 162.664 90.392H162.944C162.852 90.788 162.508 91.048 162.068 91.048C161.52 91.048 161.148 90.644 161.148 90.036ZM164.174 91.048C163.606 91.048 163.226 90.64 163.226 90.032C163.226 89.428 163.602 89.012 164.154 89.012C164.678 89.012 165.034 89.384 165.034 89.932V90.068H163.494C163.514 90.54 163.762 90.812 164.178 90.812C164.494 90.812 164.698 90.676 164.77 90.42H165.034C164.93 90.828 164.63 91.048 164.174 91.048ZM164.154 89.248C163.79 89.248 163.55 89.488 163.502 89.868H164.758C164.758 89.496 164.518 89.248 164.154 89.248ZM165.752 89.512C165.616 89.512 165.5 89.396 165.5 89.264C165.5 89.128 165.616 89.016 165.752 89.016C165.888 89.016 166.004 89.128 166.004 89.264C166.004 89.396 165.888 89.512 165.752 89.512ZM165.752 91.044C165.616 91.044 165.5 90.932 165.5 90.8C165.5 90.664 165.616 90.548 165.752 90.548C165.888 90.548 166.004 90.664 166.004 90.8C166.004 90.932 165.888 91.044 165.752 91.044ZM167.774 91V88.136H168.822C169.374 88.136 169.714 88.416 169.714 88.876C169.714 89.212 169.566 89.44 169.27 89.556C169.602 89.664 169.77 89.896 169.77 90.248C169.77 90.708 169.426 91 168.882 91H167.774ZM168.818 88.392H168.062V89.44H168.854C169.214 89.44 169.418 89.24 169.418 88.9C169.418 88.58 169.202 88.392 168.818 88.392ZM168.882 89.692H168.062V90.74H168.882C169.258 90.74 169.478 90.544 169.478 90.212C169.478 89.888 169.254 89.692 168.882 89.692ZM170.517 91H170.241V88.084H170.517V91ZM171.916 91.048C171.348 91.048 170.968 90.64 170.968 90.032C170.968 89.428 171.344 89.012 171.896 89.012C172.42 89.012 172.776 89.384 172.776 89.932V90.068H171.236C171.256 90.54 171.504 90.812 171.92 90.812C172.236 90.812 172.44 90.676 172.512 90.42H172.776C172.672 90.828 172.372 91.048 171.916 91.048ZM171.896 89.248C171.532 89.248 171.292 89.488 171.244 89.868H172.5C172.5 89.496 172.26 89.248 171.896 89.248ZM173.754 91.048C173.342 91.048 173.098 90.816 173.098 90.476C173.098 90.12 173.37 89.896 173.822 89.86L174.462 89.808V89.744C174.462 89.364 174.234 89.244 173.95 89.244C173.614 89.244 173.414 89.396 173.414 89.656H173.162C173.162 89.264 173.482 89.012 173.958 89.012C174.406 89.012 174.734 89.236 174.734 89.748V91H174.502L174.466 90.66C174.346 90.904 174.082 91.048 173.754 91.048ZM173.818 90.824C174.226 90.824 174.462 90.54 174.462 90.12V90.016L173.89 90.06C173.526 90.092 173.378 90.252 173.378 90.468C173.378 90.704 173.554 90.824 173.818 90.824ZM175.152 90.036C175.152 89.428 175.524 89.012 176.088 89.012C176.536 89.012 176.864 89.272 176.94 89.672H176.664C176.592 89.404 176.36 89.256 176.092 89.256C175.7 89.256 175.424 89.556 175.424 90.032C175.424 90.492 175.68 90.8 176.072 90.8C176.36 90.8 176.592 90.64 176.668 90.392H176.948C176.856 90.788 176.512 91.048 176.072 91.048C175.524 91.048 175.152 90.644 175.152 90.036ZM177.642 90.996H177.366V88.084H177.642V89.4C177.766 89.168 178.002 89.012 178.326 89.012C178.834 89.012 179.062 89.328 179.062 89.816V91H178.786V89.876C178.786 89.424 178.574 89.264 178.274 89.264C177.858 89.264 177.642 89.572 177.642 89.944V90.996ZM181.95 91.044C181.15 91.044 180.606 90.448 180.606 89.568C180.606 88.688 181.158 88.088 181.966 88.088C182.582 88.088 183.066 88.46 183.182 89.028H182.874C182.754 88.616 182.402 88.364 181.954 88.364C181.326 88.364 180.906 88.844 180.906 89.568C180.906 90.288 181.326 90.768 181.954 90.768C182.406 90.768 182.766 90.524 182.89 90.14H183.198C183.066 90.68 182.566 91.044 181.95 91.044ZM183.892 90.996H183.616V88.084H183.892V89.4C184.016 89.168 184.252 89.012 184.576 89.012C185.084 89.012 185.312 89.328 185.312 89.816V91H185.036V89.876C185.036 89.424 184.824 89.264 184.524 89.264C184.108 89.264 183.892 89.572 183.892 89.944V90.996ZM186.418 91.048C186.006 91.048 185.762 90.816 185.762 90.476C185.762 90.12 186.034 89.896 186.486 89.86L187.126 89.808V89.744C187.126 89.364 186.898 89.244 186.614 89.244C186.278 89.244 186.078 89.396 186.078 89.656H185.826C185.826 89.264 186.146 89.012 186.622 89.012C187.07 89.012 187.398 89.236 187.398 89.748V91H187.166L187.13 90.66C187.01 90.904 186.746 91.048 186.418 91.048ZM186.482 90.824C186.89 90.824 187.126 90.54 187.126 90.12V90.016L186.554 90.06C186.19 90.092 186.042 90.252 186.042 90.468C186.042 90.704 186.218 90.824 186.482 90.824ZM187.952 91.844V89.064H188.192L188.22 89.456C188.356 89.156 188.628 89.012 188.952 89.012C189.512 89.012 189.848 89.44 189.848 90.024C189.848 90.608 189.524 91.048 188.952 91.048C188.624 91.048 188.364 90.908 188.228 90.628V91.844H187.952ZM188.232 90.032C188.232 90.476 188.48 90.8 188.904 90.8C189.324 90.8 189.568 90.476 189.568 90.032C189.568 89.584 189.324 89.264 188.904 89.264C188.48 89.264 188.232 89.584 188.232 90.032ZM190.712 91H190.44V89.296H190.052V89.064H190.44V88.452H190.712V89.064H191.1V89.296H190.712V91ZM192.252 91.048C191.684 91.048 191.304 90.64 191.304 90.032C191.304 89.428 191.68 89.012 192.232 89.012C192.756 89.012 193.112 89.384 193.112 89.932V90.068H191.572C191.592 90.54 191.84 90.812 192.256 90.812C192.572 90.812 192.776 90.676 192.848 90.42H193.112C193.008 90.828 192.708 91.048 192.252 91.048ZM192.232 89.248C191.868 89.248 191.628 89.488 191.58 89.868H192.836C192.836 89.496 192.596 89.248 192.232 89.248ZM194.566 89.04V89.288H194.414C194.058 89.288 193.83 89.528 193.83 89.896V91H193.554V89.064H193.814L193.834 89.364C193.91 89.156 194.114 89.02 194.386 89.02C194.446 89.02 194.498 89.024 194.566 89.04ZM196.914 91.048C196.338 91.048 195.97 90.688 195.97 90.124H196.258C196.258 90.536 196.51 90.784 196.918 90.784C197.35 90.784 197.63 90.496 197.63 90.072C197.63 89.672 197.37 89.356 196.918 89.356C196.654 89.356 196.414 89.476 196.258 89.648L196.03 89.576L196.374 88.136H197.758V88.4H196.582L196.366 89.3C196.526 89.172 196.734 89.1 196.958 89.1C197.554 89.1 197.922 89.528 197.922 90.064C197.922 90.64 197.514 91.048 196.914 91.048ZM199.106 89.464H198.878V89.264L199.762 88.392H198.39V88.136H200.126V88.368L199.27 89.22C199.806 89.248 200.19 89.588 200.19 90.108C200.19 90.676 199.774 91.048 199.194 91.048C198.63 91.048 198.25 90.7 198.25 90.128H198.534C198.534 90.54 198.79 90.788 199.194 90.788C199.622 90.788 199.898 90.516 199.898 90.1C199.898 89.708 199.618 89.464 199.106 89.464ZM200.911 89.1L201.627 88.136H201.963L201.211 89.132C201.347 89.064 201.471 89.036 201.603 89.036C202.199 89.036 202.595 89.472 202.595 90.032C202.595 90.62 202.151 91.048 201.579 91.048C201.003 91.048 200.551 90.604 200.551 90.032C200.551 89.7 200.643 89.468 200.911 89.1ZM200.843 90.036C200.843 90.472 201.143 90.788 201.579 90.788C202.003 90.788 202.307 90.472 202.307 90.036C202.307 89.6 202.003 89.288 201.579 89.288C201.143 89.288 200.843 89.6 200.843 90.036Z" fill="#9E9E9E"/>
</svg>
