<svg width="147" height="31" viewBox="0 0 147 31" fill="none" xmlns="http://www.w3.org/2000/svg">
<g clip-path="url(#clip0_1441_455)">
<path d="M37.5 19H35.5C35.1044 19 34.7178 19.1173 34.3889 19.3371C34.06 19.5568 33.8036 19.8692 33.6522 20.2346C33.5009 20.6001 33.4613 21.0022 33.5384 21.3902C33.6156 21.7781 33.8061 22.1345 34.0858 22.4142C34.3655 22.6939 34.7219 22.8844 35.1098 22.9616C35.4978 23.0387 35.8999 22.9991 36.2654 22.8478C36.6308 22.6964 36.9432 22.44 37.1629 22.1111C37.3827 21.7822 37.5 21.3956 37.5 21V19Z" stroke="#A6DA95" stroke-width="0.75" stroke-linecap="round" stroke-linejoin="round"/>
<path d="M37.5 18V14H35.5C34.9696 14 34.4609 14.2107 34.0858 14.5858C33.7107 14.9609 33.5 15.4696 33.5 16C33.5 16.5304 33.7107 17.0391 34.0858 17.4142C34.4609 17.7893 34.9696 18 35.5 18H37.5Z" stroke="#C6A0F6" stroke-width="0.75" stroke-linecap="round" stroke-linejoin="round"/>
<path d="M37.5 13V9H35.5C34.9696 9 34.4609 9.21071 34.0858 9.58579C33.7107 9.96086 33.5 10.4696 33.5 11C33.5 11.5304 33.7107 12.0391 34.0858 12.4142C34.4609 12.7893 34.9696 13 35.5 13H37.5Z" stroke="#ED8796" stroke-width="0.75" stroke-linecap="round" stroke-linejoin="round"/>
<path d="M40.5 13C41.0304 13 41.5391 12.7893 41.9142 12.4142C42.2893 12.0391 42.5 11.5304 42.5 11C42.5 10.4696 42.2893 9.96086 41.9142 9.58579C41.5391 9.21071 41.0304 9 40.5 9H38.5V13H40.5Z" stroke="#F5A97F" stroke-width="0.75" stroke-linecap="round" stroke-linejoin="round"/>
<path d="M42.5 16C42.5 16.5304 42.2893 17.0391 41.9142 17.4142C41.5391 17.7893 41.0304 18 40.5 18C39.9696 18 39.4609 17.7893 39.0858 17.4142C38.7107 17.0391 38.5 16.5304 38.5 16C38.5 15.4696 38.7107 14.9609 39.0858 14.5858C39.4609 14.2107 39.9696 14 40.5 14C41.0304 14 41.5391 14.2107 41.9142 14.5858C42.2893 14.9609 42.5 15.4696 42.5 16Z" stroke="#91D7E3" stroke-width="0.75" stroke-linecap="round" stroke-linejoin="round"/>
</g>
<path d="M57.5941 11.5C57.5941 11.62 57.5141 11.64 57.3841 11.72C57.2141 11.82 57.1041 11.95 56.9741 12.13C56.8441 12.32 56.7141 12.58 56.6241 12.79C56.3741 13.34 54.1441 18.37 54.0741 18.5C54.0541 18.55 54.0241 18.58 53.9841 18.58H53.7541C53.6841 18.58 53.6741 18.56 53.6541 18.5C53.6541 18.5 51.5841 13.11 51.4641 12.79C51.2741 12.32 51.1441 12.02 50.9641 11.85C50.8741 11.76 50.7941 11.72 50.7041 11.68C50.6241 11.64 50.5641 11.6 50.5641 11.51C50.5641 11.4 50.6541 11.36 50.8441 11.36H52.2441C52.3841 11.36 52.4541 11.42 52.4541 11.52C52.4541 11.6 52.3941 11.64 52.3041 11.68C52.1541 11.75 52.0441 11.84 52.0441 12.01C52.0441 12.14 52.1141 12.36 52.2841 12.8C52.5341 13.42 53.9341 17.09 54.0441 17.38C54.0641 17.43 54.0741 17.45 54.1041 17.45C54.1341 17.45 54.1441 17.41 54.1641 17.37C54.2341 17.21 55.3541 14.6 55.7541 13.61C56.0141 12.99 56.2241 12.5 56.2241 12.15C56.2241 11.9 56.1141 11.77 55.9041 11.68C55.7941 11.63 55.7641 11.59 55.7641 11.51C55.7641 11.41 55.8641 11.36 56.0341 11.36H57.3241C57.5041 11.36 57.5941 11.4 57.5941 11.5ZM59.5555 11.64C59.5555 11.85 59.1355 12.27 58.9255 12.27C58.7255 12.27 58.3055 11.84 58.3055 11.64C58.3055 11.45 58.7255 11.02 58.9255 11.02C59.1355 11.02 59.5555 11.44 59.5555 11.64ZM59.7755 18.16C59.8955 18.23 59.9255 18.27 59.9255 18.33C59.9255 18.46 59.8255 18.5 59.6955 18.5H58.2055C58.0755 18.5 57.9755 18.46 57.9755 18.33C57.9755 18.27 58.0155 18.22 58.1255 18.16C58.2155 18.11 58.3455 18.04 58.4155 17.92C58.5155 17.77 58.5655 17.55 58.5655 16.85V14.57C58.5655 14.29 58.5555 14.13 58.4655 14.02C58.3955 13.94 58.2755 13.89 58.1555 13.86C57.9955 13.82 57.9255 13.77 57.9255 13.68C57.9255 13.59 57.9555 13.53 58.1955 13.47C58.5355 13.39 58.6955 13.34 58.9855 13.22C59.0555 13.19 59.1055 13.17 59.1555 13.17C59.2855 13.17 59.3355 13.27 59.3355 13.41V16.85C59.3355 17.55 59.3955 17.78 59.4855 17.92C59.5655 18.04 59.6855 18.11 59.7755 18.16ZM61.7155 15.21C61.7155 15.28 61.7455 15.3 61.8055 15.3H63.5955C64.2055 15.3 64.5155 15.18 64.5155 14.66C64.5155 14.16 64.0855 13.57 63.2855 13.57C62.1755 13.57 61.7155 14.78 61.7155 15.21ZM65.0555 17.22C65.1655 17.22 65.2455 17.31 65.2455 17.42C65.2455 17.63 64.9455 17.95 64.5455 18.22C64.1655 18.47 63.6855 18.61 63.2055 18.61C61.8655 18.61 60.8355 17.58 60.8355 16.03C60.8355 14.56 61.8355 13.17 63.3655 13.17C63.9355 13.17 64.4455 13.38 64.7955 13.72C65.1155 14.04 65.3555 14.5 65.3555 14.98C65.3555 15.49 65.1655 15.7 64.5855 15.7H61.7555C61.6855 15.7 61.6455 15.72 61.6455 15.8C61.6455 16.31 61.7355 16.86 62.0355 17.29C62.3355 17.73 62.7755 18.06 63.3855 18.06C63.7555 18.06 64.0855 17.94 64.3055 17.81C64.7455 17.55 64.8655 17.22 65.0555 17.22ZM74.3687 13.44C74.3687 13.54 74.2587 13.59 74.1587 13.65C74.0387 13.72 73.9187 13.79 73.7687 13.99C73.6587 14.14 73.5287 14.36 73.3787 14.76C73.1887 15.26 72.2687 17.91 72.0587 18.51C72.0487 18.55 72.0087 18.57 71.9687 18.57H71.5387C71.4887 18.57 71.4587 18.55 71.4487 18.51L70.0387 14.32C70.0287 14.3 70.0187 14.3 70.0087 14.3C69.9987 14.3 69.9887 14.3 69.9787 14.32L68.3987 18.49C68.3787 18.55 68.3487 18.57 68.2787 18.57H67.8787C67.8087 18.57 67.7787 18.55 67.7587 18.49L66.6787 14.76C66.5587 14.35 66.4087 13.97 66.2287 13.79C66.1287 13.69 66.0287 13.65 65.9487 13.61C65.8587 13.57 65.8087 13.52 65.8087 13.43C65.8087 13.32 65.9087 13.28 66.1087 13.28H67.5587C67.7087 13.28 67.7887 13.34 67.7887 13.44C67.7887 13.65 67.3187 13.61 67.3187 14.03C67.3187 14.18 67.3687 14.41 67.4787 14.77L68.2687 17.5C68.2787 17.53 68.2887 17.54 68.2987 17.54C68.3187 17.54 68.3287 17.54 68.3387 17.51L69.9387 13.28C69.9587 13.22 69.9887 13.21 70.0287 13.21H70.4087C70.4487 13.21 70.4687 13.22 70.4787 13.25L71.9187 17.5C71.9287 17.53 71.9387 17.54 71.9487 17.54C71.9687 17.54 71.9787 17.53 71.9887 17.5C72.0787 17.24 72.4087 16.27 72.6287 15.6C72.8487 14.93 72.9987 14.48 72.9987 14.16C72.9987 13.57 72.4987 13.69 72.4987 13.44C72.4987 13.33 72.5987 13.28 72.7687 13.28H74.0887C74.2887 13.28 74.3687 13.33 74.3687 13.44ZM79.1015 18.15C79.1815 18.19 79.2615 18.24 79.2615 18.34C79.2615 18.46 79.1515 18.5 78.9815 18.5H77.5915C77.4215 18.5 77.3115 18.46 77.3115 18.34C77.3115 18.24 77.3815 18.2 77.4815 18.15C77.6015 18.09 77.7015 18 77.7715 17.9C77.8615 17.76 77.9015 17.59 77.9015 16.89V12.87C77.9015 12.07 77.8615 11.9 77.6615 11.77C77.5015 11.67 77.3615 11.65 77.3615 11.52C77.3615 11.4 77.4515 11.36 77.6115 11.36H78.9615C79.1115 11.36 79.2215 11.4 79.2215 11.52C79.2215 11.65 79.0715 11.67 78.9215 11.77C78.7115 11.9 78.6715 12.07 78.6715 12.87V16.89C78.6715 17.59 78.7215 17.76 78.8015 17.9C78.8715 18 78.9515 18.07 79.1015 18.15ZM85.4388 18.15C85.5488 18.2 85.5988 18.26 85.5988 18.33C85.5988 18.46 85.4788 18.5 85.3488 18.5H83.8688C83.7388 18.5 83.6288 18.46 83.6288 18.33C83.6288 18.26 83.6688 18.2 83.7788 18.15C83.8688 18.11 83.9988 18.04 84.0688 17.92C84.1588 17.77 84.2288 17.54 84.2288 16.85V15.15C84.2288 14.29 83.8288 13.81 83.0688 13.81C82.7488 13.81 82.4088 13.92 82.1588 14.17C81.7588 14.57 81.6788 15.12 81.6788 16.85C81.6788 17.54 81.7488 17.77 81.8388 17.92C81.9088 18.04 82.0488 18.11 82.1288 18.15C82.2388 18.2 82.2788 18.26 82.2788 18.33C82.2788 18.46 82.1788 18.5 82.0388 18.5H80.5688C80.4488 18.5 80.3288 18.46 80.3288 18.33C80.3288 18.26 80.3688 18.2 80.4788 18.15C80.5688 18.11 80.7088 18.04 80.7788 17.92C80.8688 17.77 80.9388 17.54 80.9388 16.85V14.89C80.9388 14.4 80.9388 14.16 80.8188 14.01C80.7488 13.92 80.6488 13.89 80.4988 13.85C80.3888 13.82 80.2888 13.79 80.2888 13.67C80.2888 13.57 80.3288 13.51 80.5388 13.46C80.8488 13.39 81.0788 13.31 81.3088 13.21C81.3788 13.18 81.4288 13.17 81.4788 13.17C81.6188 13.17 81.6788 13.27 81.6788 13.4V14.05C81.6788 14.07 81.6788 14.1 81.6988 14.1C81.7188 14.1 81.7288 14.08 81.7488 14.05C82.0388 13.62 82.5688 13.17 83.3688 13.17C83.8888 13.17 84.2988 13.36 84.5788 13.67C84.9388 14.06 84.9988 14.65 84.9988 15.13V16.85C84.9988 17.54 85.0588 17.77 85.1488 17.92C85.2188 18.04 85.3488 18.11 85.4388 18.15ZM93.6768 12.81C93.6768 13.04 93.5968 13.12 93.4668 13.12C93.3568 13.12 93.2768 13.09 93.1968 12.88C93.0568 12.54 93.0168 12.26 92.6768 12.02C92.3368 11.79 91.6968 11.77 90.8668 11.77H90.3068C90.1668 11.77 90.1168 11.83 90.1168 11.95V14.62C90.1168 14.77 90.1568 14.82 90.3268 14.82C90.5768 14.82 90.9268 14.82 91.3468 14.8C91.8168 14.78 92.2168 14.73 92.5068 14.73C92.6868 14.73 92.7968 14.76 92.7968 14.9C92.7968 14.96 92.7768 15.01 92.7668 15.05C92.6968 15.33 92.6468 15.35 92.3068 15.35C92.0468 15.35 91.6368 15.31 91.2568 15.3C90.8768 15.29 90.4468 15.29 90.2368 15.29C90.1468 15.3 90.1168 15.33 90.1168 15.41V16.89C90.1168 17.59 90.1668 17.76 90.2468 17.9C90.3168 18 90.4068 18.09 90.5468 18.16C90.6168 18.21 90.7068 18.25 90.7068 18.34C90.7068 18.46 90.5968 18.5 90.4268 18.5H89.0368C88.8668 18.5 88.7568 18.46 88.7568 18.34C88.7568 18.25 88.8468 18.21 88.9268 18.16C89.0568 18.09 89.1468 18 89.2168 17.9C89.3068 17.76 89.3468 17.59 89.3468 16.89V12.71C89.3468 12.06 89.3368 11.91 89.0768 11.77C88.9668 11.7 88.8068 11.67 88.8068 11.53C88.8068 11.42 88.8968 11.36 89.0568 11.36H91.6268C92.5868 11.36 93.0268 11.28 93.2768 11.28C93.4568 11.28 93.6168 11.35 93.6268 11.55C93.6468 11.85 93.6568 12.45 93.6768 12.81ZM95.952 11.64C95.952 11.85 95.532 12.27 95.322 12.27C95.122 12.27 94.702 11.84 94.702 11.64C94.702 11.45 95.122 11.02 95.322 11.02C95.532 11.02 95.952 11.44 95.952 11.64ZM96.172 18.16C96.292 18.23 96.322 18.27 96.322 18.33C96.322 18.46 96.222 18.5 96.092 18.5H94.602C94.472 18.5 94.372 18.46 94.372 18.33C94.372 18.27 94.412 18.22 94.522 18.16C94.612 18.11 94.742 18.04 94.812 17.92C94.912 17.77 94.962 17.55 94.962 16.85V14.57C94.962 14.29 94.952 14.13 94.862 14.02C94.792 13.94 94.672 13.89 94.552 13.86C94.392 13.82 94.322 13.77 94.322 13.68C94.322 13.59 94.352 13.53 94.592 13.47C94.932 13.39 95.092 13.34 95.382 13.22C95.452 13.19 95.502 13.17 95.552 13.17C95.682 13.17 95.732 13.27 95.732 13.41V16.85C95.732 17.55 95.792 17.78 95.882 17.92C95.962 18.04 96.082 18.11 96.172 18.16ZM99.232 13.57C98.582 13.57 98.202 14.15 98.202 14.84C98.202 15.73 98.672 16.5 99.402 16.5C100.042 16.5 100.432 15.94 100.432 15.21C100.432 14.24 99.912 13.57 99.232 13.57ZM100.652 17.74C101.302 17.85 101.742 18.21 101.742 18.79C101.742 19.67 100.922 20.43 99.272 20.43C98.402 20.43 97.772 20.26 97.392 19.94C97.142 19.73 97.022 19.45 97.022 19.18C97.022 18.93 97.112 18.73 97.282 18.56C97.412 18.43 97.592 18.34 97.762 18.34C97.882 18.34 97.962 18.4 97.962 18.49C97.962 18.57 97.922 18.61 97.872 18.7C97.822 18.78 97.752 18.92 97.752 19.13C97.752 19.33 97.852 19.53 98.062 19.69C98.372 19.92 98.852 20.02 99.392 20.02C100.352 20.02 101.092 19.61 101.092 19.03C101.092 18.63 100.742 18.47 100.132 18.41C99.702 18.36 99.072 18.34 98.612 18.23C98.102 18.11 97.852 17.84 97.852 17.5C97.852 17.14 98.082 16.88 98.472 16.72C97.822 16.42 97.392 15.82 97.392 15.06C97.392 14.03 98.182 13.17 99.342 13.17C99.722 13.17 100.172 13.28 100.612 13.6C100.672 13.64 100.722 13.66 100.772 13.66C101.072 13.66 100.962 13.15 101.412 13.15C101.612 13.15 101.772 13.28 101.772 13.55C101.772 13.86 101.542 14.03 101.112 14.03C101.062 14.03 101.022 14.03 100.962 14.02C101.172 14.35 101.222 14.69 101.222 14.95C101.222 16.03 100.542 16.82 99.412 16.89C99.242 16.9 99.102 16.91 99.042 16.92C98.842 16.94 98.552 17 98.552 17.24C98.552 17.45 98.752 17.54 99.292 17.6C99.662 17.64 100.182 17.66 100.652 17.74ZM110.893 18.16C110.993 18.21 111.053 18.26 111.053 18.34C111.053 18.46 110.943 18.5 110.813 18.5H109.343C109.213 18.5 109.103 18.46 109.103 18.34C109.103 18.27 109.143 18.21 109.253 18.16C109.323 18.13 109.483 18.04 109.553 17.92C109.643 17.77 109.703 17.55 109.703 16.85V15.17C109.703 14.62 109.573 14.31 109.323 14.08C109.143 13.91 108.873 13.8 108.553 13.8C108.233 13.8 107.903 13.92 107.663 14.18C107.303 14.57 107.243 15.13 107.243 16.85C107.243 17.55 107.313 17.77 107.403 17.92C107.473 18.04 107.603 18.11 107.693 18.16C107.803 18.22 107.843 18.27 107.843 18.34C107.843 18.46 107.733 18.5 107.603 18.5H106.133C106.003 18.5 105.893 18.46 105.893 18.34C105.893 18.27 105.933 18.22 106.053 18.16C106.153 18.11 106.273 18.04 106.343 17.92C106.433 17.77 106.493 17.55 106.493 16.85V15.17C106.493 14.66 106.393 14.25 106.123 14.03C105.963 13.9 105.733 13.81 105.443 13.81C105.123 13.81 104.793 13.92 104.533 14.18C104.153 14.57 104.033 15.13 104.033 16.85C104.033 17.55 104.083 17.77 104.183 17.92C104.263 18.04 104.403 18.12 104.473 18.16C104.583 18.22 104.623 18.27 104.623 18.34C104.623 18.46 104.513 18.5 104.393 18.5H102.923C102.793 18.5 102.683 18.46 102.683 18.34C102.683 18.27 102.723 18.21 102.833 18.16C102.923 18.12 103.053 18.04 103.133 17.92C103.223 17.78 103.283 17.55 103.283 16.85V14.79C103.283 14.37 103.283 14.15 103.173 14.02C103.103 13.94 102.993 13.9 102.853 13.86C102.753 13.83 102.643 13.8 102.643 13.68C102.643 13.59 102.673 13.51 102.893 13.46C103.213 13.39 103.433 13.31 103.663 13.21C103.733 13.18 103.783 13.17 103.833 13.17C103.973 13.17 104.033 13.28 104.033 13.41V14.07C104.033 14.09 104.043 14.1 104.053 14.1C104.063 14.1 104.073 14.09 104.093 14.06C104.383 13.63 104.913 13.17 105.713 13.17C106.503 13.17 106.963 13.61 107.153 14.07C107.163 14.1 107.173 14.11 107.183 14.11C107.203 14.11 107.213 14.1 107.233 14.07C107.523 13.64 108.033 13.17 108.843 13.17C109.493 13.17 109.953 13.5 110.203 13.9C110.423 14.26 110.453 14.6 110.453 15.15V16.85C110.453 17.55 110.513 17.77 110.603 17.92C110.673 18.04 110.803 18.11 110.893 18.16ZM114.92 15.76V15.61C114.92 15.59 114.91 15.57 114.89 15.57C114.88 15.57 114.87 15.57 114.85 15.59C114.45 15.92 113.7 16.11 113.16 16.45C112.78 16.69 112.62 17.02 112.62 17.34C112.62 17.85 113 18.17 113.49 18.17C113.92 18.17 114.41 17.93 114.68 17.37C114.91 16.89 114.92 16.39 114.92 15.76ZM116.1 17.94C116.23 17.94 116.24 18.05 116.24 18.09C116.24 18.32 115.95 18.61 115.61 18.61C115.31 18.61 115.01 18.41 114.95 17.8C114.95 17.78 114.95 17.76 114.93 17.76C114.92 17.76 114.91 17.77 114.89 17.8C114.56 18.34 113.93 18.61 113.31 18.61C112.52 18.61 111.76 18.14 111.76 17.33C111.76 16.94 111.96 16.56 112.35 16.29C112.89 15.91 113.5 15.83 114.08 15.56C114.68 15.28 114.92 14.9 114.92 14.49C114.92 14 114.61 13.58 114.01 13.58C113.68 13.58 113.43 13.68 113.21 13.86C112.85 14.15 112.7 14.51 112.58 14.67C112.53 14.75 112.47 14.82 112.37 14.82C112.15 14.82 112.15 14.56 112.15 14.38C112.15 14.13 112.2 13.8 112.31 13.65C112.45 13.48 112.74 13.35 113.06 13.27C113.31 13.2 113.61 13.17 113.88 13.17C114.59 13.17 115.01 13.41 115.29 13.72C115.68 14.16 115.7 14.76 115.7 15.27C115.7 15.81 115.67 16.4 115.67 16.99C115.67 17.44 115.67 17.96 115.95 17.96C115.99 17.96 116.06 17.94 116.1 17.94Z" fill="url(#paint0_linear_1441_455)"/>
<defs>
<linearGradient id="paint0_linear_1441_455" x1="50" y1="15.5" x2="117" y2="15.5" gradientUnits="userSpaceOnUse">
<stop stop-color="#ED8796"/>
<stop offset="0.184543" stop-color="#F5A97F"/>
<stop offset="0.412178" stop-color="#C6A0F6"/>
<stop offset="0.742395" stop-color="#91D7E3"/>
<stop offset="1" stop-color="#A6DA95"/>
</linearGradient>
<clipPath id="clip0_1441_455">
<rect width="16" height="16" fill="white" transform="translate(30 7.5)"/>
</clipPath>
</defs>
</svg>
