<svg width="42" height="42" viewBox="0 0 42 42" fill="none" xmlns="http://www.w3.org/2000/svg">
<rect x="1" y="1" width="40" height="40" rx="20" fill="#F0EEE8"/>
<rect x="1" y="1" width="40" height="40" rx="20" stroke="#F5F4F0" stroke-width="2"/>
<path d="M20.4375 24.9375H18.1875C17.7425 24.9375 17.3075 25.0695 16.9375 25.3167C16.5675 25.5639 16.2791 25.9153 16.1088 26.3265C15.9385 26.7376 15.8939 27.19 15.9807 27.6265C16.0676 28.0629 16.2818 28.4638 16.5965 28.7785C16.9112 29.0932 17.3121 29.3075 17.7485 29.3943C18.185 29.4811 18.6374 29.4365 19.0485 29.2662C19.4597 29.0959 19.8111 28.8075 20.0583 28.4375C20.3055 28.0675 20.4375 27.6325 20.4375 27.1875V24.9375Z" stroke="#0A231D" stroke-linecap="round" stroke-linejoin="round"/>
<path d="M20.4375 23.8125V19.3125H18.1875C17.5908 19.3125 17.0185 19.5496 16.5965 19.9715C16.1746 20.3935 15.9375 20.9658 15.9375 21.5625C15.9375 22.1592 16.1746 22.7315 16.5965 23.1535C17.0185 23.5754 17.5908 23.8125 18.1875 23.8125H20.4375Z" stroke="#0A231D" stroke-linecap="round" stroke-linejoin="round"/>
<path d="M20.4375 18.1875V13.6875H18.1875C17.5908 13.6875 17.0185 13.9246 16.5965 14.3465C16.1746 14.7685 15.9375 15.3408 15.9375 15.9375C15.9375 16.5342 16.1746 17.1065 16.5965 17.5285C17.0185 17.9504 17.5908 18.1875 18.1875 18.1875H20.4375Z" stroke="#0A231D" stroke-linecap="round" stroke-linejoin="round"/>
<path d="M23.8125 18.1875C24.4092 18.1875 24.9815 17.9504 25.4035 17.5285C25.8254 17.1065 26.0625 16.5342 26.0625 15.9375C26.0625 15.3408 25.8254 14.7685 25.4035 14.3465C24.9815 13.9246 24.4092 13.6875 23.8125 13.6875H21.5625V18.1875H23.8125Z" stroke="#0A231D" stroke-linecap="round" stroke-linejoin="round"/>
<path d="M26.0625 21.5625C26.0625 22.1592 25.8254 22.7315 25.4035 23.1535C24.9815 23.5754 24.4092 23.8125 23.8125 23.8125C23.2158 23.8125 22.6435 23.5754 22.2215 23.1535C21.7996 22.7315 21.5625 22.1592 21.5625 21.5625C21.5625 20.9658 21.7996 20.3935 22.2215 19.9715C22.6435 19.5496 23.2158 19.3125 23.8125 19.3125C24.4092 19.3125 24.9815 19.5496 25.4035 19.9715C25.8254 20.3935 26.0625 20.9658 26.0625 21.5625Z" stroke="#0A231D" stroke-linecap="round" stroke-linejoin="round"/>
</svg>
