<svg width="42" height="42" viewBox="0 0 42 42" fill="none" xmlns="http://www.w3.org/2000/svg">
<rect x="1" y="1" width="40" height="40" rx="20" fill="#F0EEE8"/>
<rect x="1" y="1" width="40" height="40" rx="20" stroke="#F5F4F0" stroke-width="2"/>
<path d="M19.4556 20.5903C19.8377 20.2637 20.1178 19.8329 20.261 19.3493C20.4149 18.8292 20.4028 18.2741 20.2263 17.7612C20.0498 17.2484 19.7177 16.8034 19.2763 16.4882C18.8349 16.1731 18.3061 16.0035 17.7637 16.0031H17.7637H13.6855C13.5538 16.0031 13.4274 16.0555 13.3342 16.1487C13.241 16.2418 13.1887 16.3682 13.1887 16.5V25.5C13.1887 25.6318 13.241 25.7582 13.3342 25.8513C13.4274 25.9445 13.5538 25.9969 13.6855 25.9969H18.0449H18.0449C18.6935 25.9967 19.323 25.7782 19.8323 25.3766C20.3415 24.9751 20.7007 24.4137 20.852 23.7831C21.0033 23.1525 20.9379 22.4893 20.6664 21.9004C20.4108 21.346 19.9865 20.8878 19.4556 20.5903ZM25.4981 19.3781H25.498L28.0855 24.6288L28.1455 24.6739C28.1455 24.6739 28.1455 24.6739 28.1455 24.6738C28.2247 24.5684 28.2587 24.4359 28.2402 24.3054C28.2216 24.1749 28.152 24.0571 28.0466 23.9779C27.9411 23.8987 27.8086 23.8647 27.6781 23.8832C27.5476 23.9018 27.4297 23.9714 27.3506 24.0768L27.3505 24.0769C27.08 24.4378 26.7099 24.7117 26.2858 24.8652C25.8616 25.0187 25.4019 25.045 24.9631 24.9408C24.5242 24.8366 24.1254 24.6066 23.8154 24.2789C23.5262 23.973 23.3261 23.5945 23.2361 23.1844H28.3105C28.4423 23.1844 28.5687 23.132 28.6619 23.0388C28.7551 22.9457 28.8074 22.8193 28.8074 22.6875V22.6874C28.8063 21.8101 28.4573 20.969 27.8369 20.3487C27.2165 19.7283 26.3755 19.3793 25.4981 19.3781ZM14.1824 16.9969H17.7637C18.1913 16.9969 18.6015 17.1668 18.9039 17.4692C19.2063 17.7716 19.3762 18.1817 19.3762 18.6094C19.3762 19.037 19.2063 19.4472 18.9039 19.7496C18.6015 20.052 18.1913 20.2219 17.7637 20.2219H14.1824V16.9969ZM18.0449 25.0031H14.1824V21.2156H18.0449C18.5472 21.2156 19.0289 21.4151 19.384 21.7703C19.7392 22.1254 19.9387 22.6071 19.9387 23.1094C19.9387 23.6116 19.7392 24.0933 19.384 24.4485C19.0289 24.8036 18.5472 25.0031 18.0449 25.0031ZM22.8967 17.2737C22.8035 17.3668 22.7512 17.4932 22.7512 17.625C22.7512 17.7568 22.8035 17.8832 22.8967 17.9763C22.9899 18.0695 23.1163 18.1219 23.248 18.1219H27.748C27.8798 18.1219 28.0062 18.0695 28.0994 17.9763C28.1926 17.8832 28.2449 17.7568 28.2449 17.625C28.2449 17.4932 28.1926 17.3668 28.0994 17.2737C28.0062 17.1805 27.8798 17.1281 27.748 17.1281H23.248C23.1163 17.1281 22.9899 17.1805 22.8967 17.2737ZM27.76 22.1906H23.236C23.3455 21.6907 23.6179 21.2401 24.0116 20.9105C24.4283 20.5616 24.9545 20.3705 25.498 20.3705C26.0416 20.3705 26.5677 20.5616 26.9845 20.9105C27.3782 21.2401 27.6506 21.6907 27.76 22.1906Z" fill="#0A231D" stroke="#0A231D" stroke-width="0.15"/>
</svg>
