<svg width="1440" height="278" viewBox="0 0 1440 278" fill="none" xmlns="http://www.w3.org/2000/svg">
<path d="M380.396 11.44H380.936C380.936 12.184 381.488 12.64 382.376 12.64C383.348 12.64 383.948 12.208 383.948 11.5C383.948 10.936 383.672 10.648 382.928 10.456L381.956 10.204C380.972 9.952 380.504 9.4 380.504 8.692C380.504 7.732 381.296 7.096 382.484 7.096C383.672 7.096 384.416 7.732 384.452 8.776H383.912C383.876 8.032 383.348 7.6 382.484 7.6C381.56 7.6 381.056 7.984 381.056 8.692C381.056 9.184 381.392 9.532 382.088 9.712L383.048 9.964C384.056 10.228 384.5 10.696 384.5 11.5C384.5 12.484 383.66 13.144 382.4 13.144C381.176 13.144 380.396 12.484 380.396 11.44ZM386.527 12.988H385.975V4.336H386.527V8.356C386.899 7.612 387.619 7.096 388.639 7.096C390.187 7.096 390.823 8.056 390.823 9.496V13H390.271V9.604C390.271 8.08 389.587 7.6 388.603 7.6C387.223 7.6 386.527 8.656 386.527 9.868V12.988ZM394.204 13.144C392.968 13.144 392.26 12.46 392.26 11.476C392.26 10.42 393.076 9.748 394.42 9.64L396.4 9.484V9.268C396.4 7.972 395.632 7.6 394.72 7.6C393.652 7.6 393.016 8.104 393.016 8.944H392.464C392.464 7.816 393.376 7.096 394.732 7.096C395.968 7.096 396.952 7.696 396.952 9.184V13H396.508L396.4 11.92C396.004 12.7 395.2 13.144 394.204 13.144ZM394.276 12.652C395.632 12.652 396.4 11.668 396.4 10.252V9.94L394.468 10.096C393.304 10.192 392.812 10.756 392.812 11.464C392.812 12.256 393.412 12.652 394.276 12.652ZM399.628 13H399.076V7.72H397.912V7.24H399.076V5.416H399.628V7.24H400.792V7.72H399.628V13ZM404.229 13.144C402.561 13.144 401.457 11.944 401.457 10.132C401.457 8.332 402.549 7.096 404.157 7.096C405.657 7.096 406.689 8.176 406.689 9.748V10.132H402.009C402.057 11.704 402.873 12.64 404.229 12.64C405.249 12.64 405.897 12.196 406.125 11.344H406.689C406.353 12.532 405.525 13.144 404.229 13.144ZM404.157 7.6C402.981 7.6 402.153 8.416 402.021 9.676H406.125C406.125 8.428 405.345 7.6 404.157 7.6ZM410.824 7.156V7.636H410.392C409.324 7.636 408.628 8.416 408.628 9.496V13H408.076V7.24H408.592L408.64 8.164C408.868 7.516 409.504 7.096 410.32 7.096C410.5 7.096 410.632 7.108 410.824 7.156ZM412.53 13H411.978V7.24H412.422L412.506 8.128C412.806 7.468 413.466 7.096 414.27 7.096C415.194 7.096 415.902 7.6 416.154 8.392C416.406 7.6 417.102 7.096 418.062 7.096C419.25 7.096 420.102 7.888 420.102 9.232V13H419.574V9.304C419.574 8.248 418.974 7.6 418.014 7.6C416.922 7.6 416.322 8.452 416.322 9.316V13H415.782V9.292C415.782 8.236 415.182 7.6 414.222 7.6C413.13 7.6 412.53 8.44 412.53 9.304V13ZM422.901 13H422.349V7.72H421.185V7.24H422.349V5.416H422.901V7.24H424.065V7.72H422.901V13ZM427.345 10.384C427.345 9.436 428.101 8.788 429.361 8.692L431.197 8.548V8.344C431.197 7.324 430.681 6.82 429.637 6.82C428.665 6.82 428.077 7.276 428.077 8.044H427.537C427.537 7.024 428.377 6.34 429.649 6.34C430.957 6.34 431.725 7.048 431.725 8.272V10.744C431.725 11.224 432.013 11.488 432.529 11.488C433.417 11.488 434.017 10.516 434.017 9.076C434.017 6.58 432.193 4.792 429.649 4.792C427.213 4.792 425.293 6.736 425.293 9.196C425.293 11.692 427.189 13.636 429.649 13.636C430.705 13.636 431.689 13.288 432.469 12.628L432.757 12.976C431.893 13.708 430.825 14.092 429.649 14.092C426.901 14.092 424.789 11.968 424.789 9.196C424.789 6.46 426.913 4.336 429.649 4.336C432.493 4.336 434.521 6.304 434.521 9.076C434.521 10.696 433.669 11.92 432.529 11.92C431.701 11.92 431.233 11.524 431.197 10.792C430.825 11.512 430.093 11.92 429.157 11.92C428.053 11.92 427.345 11.32 427.345 10.384ZM427.873 10.384C427.873 11.056 428.365 11.44 429.241 11.44C430.453 11.44 431.197 10.612 431.197 9.256V8.992L429.409 9.136C428.425 9.22 427.873 9.652 427.873 10.384ZM435.476 9.94C435.476 8.416 436.46 7.096 438.164 7.096C439.232 7.096 440.036 7.624 440.42 8.584L440.492 7.24H440.936V12.88C440.936 14.488 439.868 15.568 438.26 15.568C436.868 15.568 435.872 14.788 435.632 13.468H436.172C436.388 14.476 437.168 15.064 438.272 15.064C439.544 15.064 440.396 14.188 440.396 12.88V11.32C440 12.244 439.148 12.784 438.104 12.784C436.448 12.784 435.476 11.464 435.476 9.94ZM436.04 9.94C436.04 11.212 436.808 12.28 438.14 12.28C439.508 12.28 440.3 11.284 440.3 9.928C440.3 8.596 439.544 7.6 438.164 7.6C436.796 7.6 436.04 8.68 436.04 9.94ZM443.316 13H442.764V7.24H443.208L443.292 8.128C443.592 7.468 444.252 7.096 445.056 7.096C445.98 7.096 446.688 7.6 446.94 8.392C447.192 7.6 447.888 7.096 448.848 7.096C450.036 7.096 450.888 7.888 450.888 9.232V13H450.36V9.304C450.36 8.248 449.76 7.6 448.8 7.6C447.708 7.6 447.108 8.452 447.108 9.316V13H446.568V9.292C446.568 8.236 445.968 7.6 445.008 7.6C443.916 7.6 443.316 8.44 443.316 9.304V13ZM454.274 13.144C453.038 13.144 452.33 12.46 452.33 11.476C452.33 10.42 453.146 9.748 454.49 9.64L456.47 9.484V9.268C456.47 7.972 455.702 7.6 454.79 7.6C453.722 7.6 453.086 8.104 453.086 8.944H452.534C452.534 7.816 453.446 7.096 454.802 7.096C456.038 7.096 457.022 7.696 457.022 9.184V13H456.578L456.47 11.92C456.074 12.7 455.27 13.144 454.274 13.144ZM454.346 12.652C455.702 12.652 456.47 11.668 456.47 10.252V9.94L454.538 10.096C453.374 10.192 452.882 10.756 452.882 11.464C452.882 12.256 453.482 12.652 454.346 12.652ZM459.047 5.476C458.771 5.476 458.543 5.248 458.543 4.984C458.543 4.708 458.771 4.468 459.047 4.468C459.311 4.468 459.551 4.708 459.551 4.984C459.551 5.248 459.311 5.476 459.047 5.476ZM458.771 13V7.24H459.323V13H458.771ZM461.75 13H461.198V4.336H461.75V13ZM464.211 13.132C463.851 13.132 463.551 12.832 463.551 12.484C463.551 12.124 463.851 11.824 464.211 11.824C464.571 11.824 464.871 12.124 464.871 12.484C464.871 12.832 464.571 13.132 464.211 13.132ZM465.828 10.144C465.828 8.32 466.908 7.096 468.564 7.096C469.8 7.096 470.724 7.828 470.988 8.92H470.424C470.184 8.068 469.416 7.588 468.564 7.588C467.28 7.588 466.368 8.572 466.368 10.132C466.368 11.62 467.208 12.64 468.492 12.64C469.416 12.64 470.184 12.112 470.448 11.332H471.012C470.7 12.424 469.716 13.144 468.492 13.144C466.908 13.144 465.828 11.944 465.828 10.144ZM471.91 10.12C471.91 8.38 473.122 7.096 474.766 7.096C476.41 7.096 477.622 8.38 477.622 10.12C477.622 11.86 476.41 13.144 474.766 13.144C473.122 13.144 471.91 11.86 471.91 10.12ZM472.474 10.12C472.474 11.596 473.422 12.64 474.766 12.64C476.11 12.64 477.058 11.596 477.058 10.12C477.058 8.644 476.11 7.6 474.766 7.6C473.422 7.6 472.474 8.644 472.474 10.12ZM479.562 13H479.01V7.24H479.454L479.538 8.128C479.838 7.468 480.498 7.096 481.302 7.096C482.226 7.096 482.934 7.6 483.186 8.392C483.438 7.6 484.134 7.096 485.094 7.096C486.282 7.096 487.134 7.888 487.134 9.232V13H486.606V9.304C486.606 8.248 486.006 7.6 485.046 7.6C483.954 7.6 483.354 8.452 483.354 9.316V13H482.814V9.292C482.814 8.236 482.214 7.6 481.254 7.6C480.162 7.6 479.562 8.44 479.562 9.304V13Z" fill="#9A9A9A"/>
<path d="M636.259 13H633.871V4.48H636.259C638.839 4.48 640.555 6.184 640.555 8.74C640.555 11.296 638.839 13 636.259 13ZM636.259 5.008H634.447V12.472H636.259C638.503 12.472 639.967 11.008 639.967 8.74C639.967 6.46 638.527 5.008 636.259 5.008ZM644.352 13.144C642.684 13.144 641.58 11.944 641.58 10.132C641.58 8.332 642.672 7.096 644.28 7.096C645.78 7.096 646.812 8.176 646.812 9.748V10.132H642.132C642.18 11.704 642.996 12.64 644.352 12.64C645.372 12.64 646.02 12.196 646.248 11.344H646.812C646.476 12.532 645.648 13.144 644.352 13.144ZM644.28 7.6C643.104 7.6 642.276 8.416 642.144 9.676H646.248C646.248 8.428 645.468 7.6 644.28 7.6ZM647.683 11.44H648.223C648.223 12.184 648.775 12.64 649.663 12.64C650.635 12.64 651.235 12.208 651.235 11.5C651.235 10.936 650.959 10.648 650.215 10.456L649.243 10.204C648.259 9.952 647.791 9.4 647.791 8.692C647.791 7.732 648.583 7.096 649.771 7.096C650.959 7.096 651.703 7.732 651.739 8.776H651.199C651.163 8.032 650.635 7.6 649.771 7.6C648.847 7.6 648.343 7.984 648.343 8.692C648.343 9.184 648.679 9.532 649.375 9.712L650.335 9.964C651.343 10.228 651.787 10.696 651.787 11.5C651.787 12.484 650.947 13.144 649.687 13.144C648.463 13.144 647.683 12.484 647.683 11.44ZM653.538 5.476C653.262 5.476 653.034 5.248 653.034 4.984C653.034 4.708 653.262 4.468 653.538 4.468C653.802 4.468 654.042 4.708 654.042 4.984C654.042 5.248 653.802 5.476 653.538 5.476ZM653.262 13V7.24H653.814V13H653.262ZM655.209 9.94C655.209 8.416 656.193 7.096 657.897 7.096C658.965 7.096 659.769 7.624 660.153 8.584L660.225 7.24H660.669V12.88C660.669 14.488 659.601 15.568 657.993 15.568C656.601 15.568 655.605 14.788 655.365 13.468H655.905C656.121 14.476 656.901 15.064 658.005 15.064C659.277 15.064 660.129 14.188 660.129 12.88V11.32C659.733 12.244 658.881 12.784 657.837 12.784C656.181 12.784 655.209 11.464 655.209 9.94ZM655.773 9.94C655.773 11.212 656.541 12.28 657.873 12.28C659.241 12.28 660.033 11.284 660.033 9.928C660.033 8.596 659.277 7.6 657.897 7.6C656.529 7.6 655.773 8.68 655.773 9.94ZM663.048 13H662.496V7.24H662.94L663.06 8.356C663.444 7.552 664.236 7.096 665.1 7.096C666.732 7.096 667.344 8.056 667.344 9.496V13H666.792V9.604C666.792 8.08 666.132 7.6 665.088 7.6C663.78 7.6 663.048 8.572 663.048 10.024V13ZM671.434 13.144C669.766 13.144 668.662 11.944 668.662 10.132C668.662 8.332 669.754 7.096 671.362 7.096C672.862 7.096 673.894 8.176 673.894 9.748V10.132H669.214C669.262 11.704 670.078 12.64 671.434 12.64C672.454 12.64 673.102 12.196 673.33 11.344H673.894C673.558 12.532 672.73 13.144 671.434 13.144ZM671.362 7.6C670.186 7.6 669.358 8.416 669.226 9.676H673.33C673.33 8.428 672.55 7.6 671.362 7.6ZM677.501 13.144C675.809 13.144 674.849 11.824 674.849 10.12C674.849 8.416 675.809 7.096 677.501 7.096C678.521 7.096 679.313 7.552 679.733 8.488V4.336H680.285V13H679.841L679.757 11.704C679.325 12.688 678.497 13.144 677.501 13.144ZM677.561 12.64C678.941 12.64 679.721 11.584 679.721 10.12C679.721 8.668 678.941 7.6 677.561 7.6C676.193 7.6 675.413 8.668 675.413 10.12C675.413 11.584 676.193 12.64 677.561 12.64ZM688.86 13H685.644V4.48H688.644C690.264 4.48 691.26 5.296 691.26 6.64C691.26 7.66 690.816 8.332 689.904 8.692C690.936 9.04 691.452 9.736 691.452 10.792C691.452 12.124 690.42 13 688.86 13ZM688.68 5.008H686.22V8.464H688.812C689.988 8.464 690.672 7.804 690.672 6.688C690.672 5.632 689.94 5.008 688.68 5.008ZM688.896 8.992H686.22V12.472H688.896C690.132 12.472 690.864 11.812 690.864 10.72C690.864 9.652 690.12 8.992 688.896 8.992ZM692.165 15.436V14.992H692.705C693.173 14.992 693.749 14.992 694.049 14.176L694.337 13.396L691.997 7.24H692.573L694.601 12.64L696.545 7.24H697.109L694.553 14.332C694.253 15.16 693.725 15.508 692.945 15.508C692.633 15.508 692.405 15.484 692.165 15.436ZM701.148 6.628C701.148 5.236 702.24 4.336 703.92 4.336C705.384 4.336 706.356 5.152 706.524 6.52H705.924C705.804 5.464 705.084 4.864 703.92 4.864C702.6 4.864 701.724 5.56 701.724 6.628C701.724 7.444 702.216 7.984 703.188 8.236L704.7 8.62C705.984 8.944 706.668 9.712 706.668 10.804C706.668 12.232 705.564 13.144 703.86 13.144C702.264 13.144 701.184 12.316 701.052 10.984H701.664C701.712 11.956 702.588 12.604 703.86 12.604C705.216 12.604 706.092 11.908 706.092 10.816C706.092 9.976 705.6 9.412 704.592 9.16L703.116 8.788C701.832 8.464 701.148 7.732 701.148 6.628ZM708.669 12.988H708.117V4.336H708.669V8.356C709.041 7.612 709.761 7.096 710.781 7.096C712.329 7.096 712.965 8.056 712.965 9.496V13H712.413V9.604C712.413 8.08 711.729 7.6 710.745 7.6C709.365 7.6 708.669 8.656 708.669 9.868V12.988ZM716.347 13.144C715.111 13.144 714.403 12.46 714.403 11.476C714.403 10.42 715.219 9.748 716.563 9.64L718.543 9.484V9.268C718.543 7.972 717.775 7.6 716.863 7.6C715.795 7.6 715.159 8.104 715.159 8.944H714.607C714.607 7.816 715.519 7.096 716.875 7.096C718.111 7.096 719.095 7.696 719.095 9.184V13H718.651L718.543 11.92C718.147 12.7 717.343 13.144 716.347 13.144ZM716.419 12.652C717.775 12.652 718.543 11.668 718.543 10.252V9.94L716.611 10.096C715.447 10.192 714.955 10.756 714.955 11.464C714.955 12.256 715.555 12.652 716.419 12.652ZM721.77 13H721.218V7.72H720.054V7.24H721.218V5.416H721.77V7.24H722.934V7.72H721.77V13ZM726.371 13.144C724.703 13.144 723.599 11.944 723.599 10.132C723.599 8.332 724.691 7.096 726.299 7.096C727.799 7.096 728.831 8.176 728.831 9.748V10.132H724.151C724.199 11.704 725.015 12.64 726.371 12.64C727.391 12.64 728.039 12.196 728.267 11.344H728.831C728.495 12.532 727.667 13.144 726.371 13.144ZM726.299 7.6C725.123 7.6 724.295 8.416 724.163 9.676H728.267C728.267 8.428 727.487 7.6 726.299 7.6ZM732.967 7.156V7.636H732.535C731.467 7.636 730.771 8.416 730.771 9.496V13H730.219V7.24H730.735L730.783 8.164C731.011 7.516 731.647 7.096 732.463 7.096C732.643 7.096 732.775 7.108 732.967 7.156Z" fill="url(#paint0_linear_1635_456)"/>
<path d="M743.859 13H740.643V4.48H743.643C745.263 4.48 746.259 5.296 746.259 6.64C746.259 7.66 745.815 8.332 744.903 8.692C745.935 9.04 746.451 9.736 746.451 10.792C746.451 12.124 745.419 13 743.859 13ZM743.679 5.008H741.219V8.464H743.811C744.987 8.464 745.671 7.804 745.671 6.688C745.671 5.632 744.939 5.008 743.679 5.008ZM743.895 8.992H741.219V12.472H743.895C745.131 12.472 745.863 11.812 745.863 10.72C745.863 9.652 745.119 8.992 743.895 8.992ZM752.008 7.24H752.56V13H752.116L752.008 11.932C751.696 12.652 750.88 13.144 749.92 13.144C748.54 13.144 747.832 12.196 747.832 10.792V7.228H748.396V10.648C748.396 12.124 749.092 12.64 750.052 12.64C751.264 12.64 752.008 11.8 752.008 10.312V7.24ZM754.661 5.476C754.385 5.476 754.157 5.248 754.157 4.984C754.157 4.708 754.385 4.468 754.661 4.468C754.925 4.468 755.165 4.708 755.165 4.984C755.165 5.248 754.925 5.476 754.661 5.476ZM754.385 13V7.24H754.937V13H754.385ZM757.364 13H756.812V4.336H757.364V13ZM760.28 13H759.728V7.72H758.564V7.24H759.728V5.416H760.28V7.24H761.444V7.72H760.28V13ZM769.347 13H766.131V4.48H769.131C770.751 4.48 771.747 5.296 771.747 6.64C771.747 7.66 771.303 8.332 770.391 8.692C771.423 9.04 771.939 9.736 771.939 10.792C771.939 12.124 770.907 13 769.347 13ZM769.167 5.008H766.707V8.464H769.299C770.475 8.464 771.159 7.804 771.159 6.688C771.159 5.632 770.427 5.008 769.167 5.008ZM769.383 8.992H766.707V12.472H769.383C770.619 12.472 771.351 11.812 771.351 10.72C771.351 9.652 770.607 8.992 769.383 8.992ZM772.651 15.436V14.992H773.191C773.659 14.992 774.235 14.992 774.535 14.176L774.823 13.396L772.483 7.24H773.059L775.087 12.64L777.031 7.24H777.595L775.039 14.332C774.739 15.16 774.211 15.508 773.431 15.508C773.119 15.508 772.891 15.484 772.651 15.436ZM781.622 8.992V8.476C782.414 8.476 782.582 8.14 782.582 7.744V4.936C782.582 4.348 782.966 3.94 783.626 3.94H784.226V4.42H783.614C783.29 4.42 783.098 4.648 783.098 4.936V7.744C783.098 8.236 782.942 8.572 782.438 8.728C782.942 8.896 783.098 9.232 783.098 9.724V12.544C783.098 12.832 783.29 13.06 783.614 13.06H784.226V13.54H783.626C782.966 13.54 782.582 13.132 782.582 12.544V9.724C782.582 9.328 782.414 8.992 781.622 8.992ZM787.749 13H785.361V4.48H787.749C790.329 4.48 792.045 6.184 792.045 8.74C792.045 11.296 790.329 13 787.749 13ZM787.749 5.008H785.937V12.472H787.749C789.993 12.472 791.457 11.008 791.457 8.74C791.457 6.46 790.017 5.008 787.749 5.008ZM795.842 13.144C794.174 13.144 793.07 11.944 793.07 10.132C793.07 8.332 794.162 7.096 795.77 7.096C797.27 7.096 798.302 8.176 798.302 9.748V10.132H793.622C793.67 11.704 794.486 12.64 795.842 12.64C796.862 12.64 797.51 12.196 797.738 11.344H798.302C797.966 12.532 797.138 13.144 795.842 13.144ZM795.77 7.6C794.594 7.6 793.766 8.416 793.634 9.676H797.738C797.738 8.428 796.958 7.6 795.77 7.6ZM801.168 13L798.78 7.24H799.368L801.084 11.428C801.204 11.728 801.324 12.028 801.456 12.436C801.576 12.028 801.696 11.752 801.828 11.428L803.544 7.24H804.12L801.732 13H801.168ZM804.898 13.54H804.298V13.06H804.91C805.234 13.06 805.426 12.832 805.426 12.544V9.724C805.426 9.232 805.582 8.896 806.086 8.728C805.582 8.572 805.426 8.236 805.426 7.744V4.936C805.426 4.648 805.234 4.42 804.91 4.42H804.298V3.94H804.898C805.558 3.94 805.942 4.348 805.942 4.936V7.744C805.942 8.14 806.11 8.476 806.902 8.476V8.992C806.11 8.992 805.942 9.328 805.942 9.724V12.544C805.942 13.132 805.558 13.54 804.898 13.54Z" fill="#9A9A9A"/>
<path d="M930.681 13.168C928.185 13.168 926.277 11.248 926.277 8.74C926.277 6.256 928.197 4.336 930.681 4.336C933.177 4.336 935.097 6.244 935.097 8.74C935.097 11.248 933.189 13.168 930.681 13.168ZM930.681 12.712C932.925 12.712 934.593 11.008 934.593 8.74C934.593 6.484 932.913 4.792 930.681 4.792C928.461 4.792 926.781 6.496 926.781 8.74C926.781 11.008 928.449 12.712 930.681 12.712ZM928.509 8.776C928.509 7.312 929.445 6.316 930.801 6.316C931.773 6.316 932.529 6.892 932.757 7.792H932.193C932.013 7.156 931.521 6.808 930.801 6.808C929.757 6.808 929.037 7.612 929.037 8.764C929.037 9.904 929.733 10.696 930.741 10.696C931.473 10.696 932.001 10.348 932.217 9.724H932.769C932.517 10.612 931.713 11.188 930.741 11.188C929.433 11.188 928.509 10.192 928.509 8.776ZM944.957 13H939.485V12.52L942.185 10.132C943.937 8.584 944.345 7.972 944.345 6.88C944.345 5.644 943.577 4.876 942.341 4.876C941.069 4.876 940.205 5.812 940.157 7.24H939.581C939.641 5.488 940.745 4.336 942.365 4.336C943.877 4.336 944.921 5.368 944.921 6.844C944.921 8.104 944.405 8.896 942.521 10.552L940.349 12.472H944.957V13ZM946.275 8.74C946.275 6.088 947.523 4.324 949.599 4.324C951.675 4.324 952.923 6.088 952.923 8.74C952.923 11.392 951.675 13.156 949.599 13.156C947.523 13.156 946.275 11.392 946.275 8.74ZM946.839 8.74C946.839 11.056 947.847 12.616 949.599 12.616C951.351 12.616 952.359 11.056 952.359 8.74C952.359 6.424 951.351 4.864 949.599 4.864C947.847 4.864 946.839 6.424 946.839 8.74ZM959.653 13H954.181V12.52L956.881 10.132C958.633 8.584 959.041 7.972 959.041 6.88C959.041 5.644 958.273 4.876 957.037 4.876C955.765 4.876 954.901 5.812 954.853 7.24H954.277C954.337 5.488 955.441 4.336 957.061 4.336C958.573 4.336 959.617 5.368 959.617 6.844C959.617 8.104 959.101 8.896 957.217 10.552L955.045 12.472H959.653V13ZM961.016 10.588H964.904V5.056L961.016 10.588ZM966.476 11.116H965.48V13H964.904V11.116H960.368V10.588L964.676 4.48H965.48V10.588H966.476V11.116ZM971.173 6.628C971.173 5.236 972.265 4.336 973.945 4.336C975.409 4.336 976.381 5.152 976.549 6.52H975.949C975.829 5.464 975.109 4.864 973.945 4.864C972.625 4.864 971.749 5.56 971.749 6.628C971.749 7.444 972.241 7.984 973.213 8.236L974.725 8.62C976.009 8.944 976.693 9.712 976.693 10.804C976.693 12.232 975.589 13.144 973.885 13.144C972.289 13.144 971.209 12.316 971.077 10.984H971.689C971.737 11.956 972.613 12.604 973.885 12.604C975.241 12.604 976.117 11.908 976.117 10.816C976.117 9.976 975.625 9.412 974.617 9.16L973.141 8.788C971.857 8.464 971.173 7.732 971.173 6.628ZM978.694 12.988H978.142V4.336H978.694V8.356C979.066 7.612 979.786 7.096 980.806 7.096C982.354 7.096 982.99 8.056 982.99 9.496V13H982.438V9.604C982.438 8.08 981.754 7.6 980.77 7.6C979.39 7.6 978.694 8.656 978.694 9.868V12.988ZM986.372 13.144C985.136 13.144 984.428 12.46 984.428 11.476C984.428 10.42 985.244 9.748 986.588 9.64L988.568 9.484V9.268C988.568 7.972 987.8 7.6 986.888 7.6C985.82 7.6 985.184 8.104 985.184 8.944H984.632C984.632 7.816 985.544 7.096 986.9 7.096C988.136 7.096 989.12 7.696 989.12 9.184V13H988.676L988.568 11.92C988.172 12.7 987.368 13.144 986.372 13.144ZM986.444 12.652C987.8 12.652 988.568 11.668 988.568 10.252V9.94L986.636 10.096C985.472 10.192 984.98 10.756 984.98 11.464C984.98 12.256 985.58 12.652 986.444 12.652ZM991.796 13H991.244V7.72H990.08V7.24H991.244V5.416H991.796V7.24H992.96V7.72H991.796V13ZM996.397 13.144C994.729 13.144 993.625 11.944 993.625 10.132C993.625 8.332 994.717 7.096 996.325 7.096C997.825 7.096 998.857 8.176 998.857 9.748V10.132H994.177C994.225 11.704 995.041 12.64 996.397 12.64C997.417 12.64 998.065 12.196 998.293 11.344H998.857C998.521 12.532 997.693 13.144 996.397 13.144ZM996.325 7.6C995.149 7.6 994.321 8.416 994.189 9.676H998.293C998.293 8.428 997.513 7.6 996.325 7.6ZM1002.99 7.156V7.636H1002.56C1001.49 7.636 1000.8 8.416 1000.8 9.496V13H1000.24V7.24H1000.76L1000.81 8.164C1001.04 7.516 1001.67 7.096 1002.49 7.096C1002.67 7.096 1002.8 7.108 1002.99 7.156ZM1008.25 13H1007.68V4.48H1008.25L1011.52 12.304L1014.77 4.48H1015.36V13H1014.78V8.332C1014.78 6.94 1014.81 6.22 1014.84 5.656L1011.81 13H1011.23L1008.19 5.692C1008.22 5.932 1008.25 6.928 1008.25 8.332V13ZM1017.94 13.132C1017.58 13.132 1017.28 12.832 1017.28 12.484C1017.28 12.124 1017.58 11.824 1017.94 11.824C1018.3 11.824 1018.6 12.124 1018.6 12.484C1018.6 12.832 1018.3 13.132 1017.94 13.132ZM1022.92 5.008V4.48H1028.85V5.008H1026.18V13H1025.6V5.008H1022.92ZM1028.77 11.44H1029.31C1029.31 12.184 1029.86 12.64 1030.75 12.64C1031.72 12.64 1032.32 12.208 1032.32 11.5C1032.32 10.936 1032.04 10.648 1031.3 10.456L1030.33 10.204C1029.34 9.952 1028.88 9.4 1028.88 8.692C1028.88 7.732 1029.67 7.096 1030.86 7.096C1032.04 7.096 1032.79 7.732 1032.82 8.776H1032.28C1032.25 8.032 1031.72 7.6 1030.86 7.6C1029.93 7.6 1029.43 7.984 1029.43 8.692C1029.43 9.184 1029.76 9.532 1030.46 9.712L1031.42 9.964C1032.43 10.228 1032.87 10.696 1032.87 11.5C1032.87 12.484 1032.03 13.144 1030.77 13.144C1029.55 13.144 1028.77 12.484 1028.77 11.44ZM1035.98 13.144C1034.74 13.144 1034.03 12.46 1034.03 11.476C1034.03 10.42 1034.85 9.748 1036.19 9.64L1038.17 9.484V9.268C1038.17 7.972 1037.41 7.6 1036.49 7.6C1035.43 7.6 1034.79 8.104 1034.79 8.944H1034.24C1034.24 7.816 1035.15 7.096 1036.51 7.096C1037.74 7.096 1038.73 7.696 1038.73 9.184V13H1038.28L1038.17 11.92C1037.78 12.7 1036.97 13.144 1035.98 13.144ZM1036.05 12.652C1037.41 12.652 1038.17 11.668 1038.17 10.252V9.94L1036.24 10.096C1035.08 10.192 1034.59 10.756 1034.59 11.464C1034.59 12.256 1035.19 12.652 1036.05 12.652ZM1041.84 13L1039.45 7.24H1040.04L1041.75 11.428C1041.87 11.728 1041.99 12.028 1042.12 12.436C1042.24 12.028 1042.36 11.752 1042.5 11.428L1044.21 7.24H1044.79L1042.4 13H1041.84ZM1045.3 11.44H1045.84C1045.84 12.184 1046.39 12.64 1047.28 12.64C1048.25 12.64 1048.85 12.208 1048.85 11.5C1048.85 10.936 1048.58 10.648 1047.83 10.456L1046.86 10.204C1045.88 9.952 1045.41 9.4 1045.41 8.692C1045.41 7.732 1046.2 7.096 1047.39 7.096C1048.58 7.096 1049.32 7.732 1049.36 8.776H1048.82C1048.78 8.032 1048.25 7.6 1047.39 7.6C1046.47 7.6 1045.96 7.984 1045.96 8.692C1045.96 9.184 1046.3 9.532 1046.99 9.712L1047.95 9.964C1048.96 10.228 1049.41 10.696 1049.41 11.5C1049.41 12.484 1048.57 13.144 1047.31 13.144C1046.08 13.144 1045.3 12.484 1045.3 11.44ZM1052.51 13.144C1051.28 13.144 1050.57 12.46 1050.57 11.476C1050.57 10.42 1051.38 9.748 1052.73 9.64L1054.71 9.484V9.268C1054.71 7.972 1053.94 7.6 1053.03 7.6C1051.96 7.6 1051.32 8.104 1051.32 8.944H1050.77C1050.77 7.816 1051.68 7.096 1053.04 7.096C1054.28 7.096 1055.26 7.696 1055.26 9.184V13H1054.82L1054.71 11.92C1054.31 12.7 1053.51 13.144 1052.51 13.144ZM1052.58 12.652C1053.94 12.652 1054.71 11.668 1054.71 10.252V9.94L1052.78 10.096C1051.61 10.192 1051.12 10.756 1051.12 11.464C1051.12 12.256 1051.72 12.652 1052.58 12.652ZM1059.76 7.156V7.636H1059.33C1058.26 7.636 1057.56 8.416 1057.56 9.496V13H1057.01V7.24H1057.53L1057.57 8.164C1057.8 7.516 1058.44 7.096 1059.25 7.096C1059.43 7.096 1059.57 7.108 1059.76 7.156Z" fill="#9A9A9A"/>
<g filter="url(#filter0_i_1635_456)">
<path d="M-332.628 42.3715C-325.299 50.7958 -322.734 65.8129 -322.734 77.1673C-322.734 87.7892 -323.833 96.2134 -330.795 96.2134C-334.826 96.2134 -337.025 94.7484 -340.323 89.2543C-345.453 80.83 -352.416 66.1792 -362.676 55.9236C-372.204 46.7668 -384.663 38.7088 -402.985 38.7088C-433.4 39.0751 -452.455 60.6851 -452.455 83.7602C-452.455 97.6785 -446.225 108.667 -436.331 117.091C-416.177 134.306 -375.502 136.503 -343.621 156.282C-322.367 169.468 -312.84 187.781 -312.84 210.856C-312.84 235.763 -325.299 256.64 -342.522 271.291C-359.745 285.942 -379.533 293.634 -407.016 293.634C-439.629 293.634 -470.411 283.012 -480.671 264.698C-485.801 255.175 -486.534 244.553 -487.267 233.931C-487.634 229.903 -488 226.606 -488 221.845C-488 215.252 -484.336 212.688 -480.305 212.688C-477.74 212.688 -475.541 213.787 -473.709 216.35C-470.411 220.379 -466.38 229.903 -460.517 238.693C-450.989 252.611 -431.934 277.152 -397.488 277.152C-361.943 277.152 -337.391 253.71 -337.391 223.31C-337.391 205.362 -345.087 192.909 -357.179 184.485C-385.396 164.706 -433.4 165.805 -461.25 136.87C-470.044 127.713 -477.007 113.794 -477.007 96.2134C-477.007 55.5573 -440.362 23.6917 -391.625 23.6917C-366.341 23.6917 -341.789 31.3834 -332.628 42.3715Z" fill="#F9F8F6"/>
<path d="M-89.578 276.785C-85.5471 278.617 -83.7148 280.814 -83.7148 283.378C-83.7148 288.14 -88.1122 289.605 -92.8759 289.605H-147.11C-151.873 289.605 -155.904 288.14 -155.904 283.378C-155.904 280.814 -154.439 278.617 -150.408 276.785C-147.11 275.32 -142.346 272.756 -139.781 268.361C-136.483 262.867 -133.918 254.443 -133.918 229.17V166.904C-133.918 135.404 -148.575 117.823 -176.425 117.823C-188.151 117.823 -200.611 121.852 -209.772 131.009C-224.429 145.66 -227.361 165.805 -227.361 229.17C-227.361 254.443 -224.796 262.867 -221.498 268.361C-218.933 272.756 -213.802 275.32 -210.871 276.785C-206.84 278.617 -205.374 280.814 -205.374 283.378C-205.374 288.14 -209.039 289.605 -214.169 289.605H-268.036C-272.434 289.605 -276.831 288.14 -276.831 283.378C-276.831 280.814 -275.365 278.617 -271.334 276.785C-268.036 275.32 -262.906 272.756 -260.341 268.361C-257.043 262.867 -254.478 254.443 -254.478 229.17V78.9987C-254.478 61.0514 -254.478 52.2609 -258.875 46.7668C-261.44 43.4704 -265.105 42.3715 -270.601 40.9065C-274.632 39.8076 -278.297 38.7088 -278.297 34.3136C-278.297 30.6509 -276.831 28.4532 -269.136 26.6219C-257.776 24.058 -249.348 21.1278 -240.919 17.4651C-238.354 16.3663 -236.522 16 -234.69 16C-229.56 16 -227.361 19.6627 -227.361 24.4242V126.614C-227.361 127.347 -227.361 128.445 -226.628 128.445C-225.895 128.445 -225.529 127.713 -224.796 126.614C-214.169 110.864 -194.747 94.3821 -165.432 94.3821C-146.377 94.3821 -131.353 101.341 -121.092 112.696C-107.9 126.98 -105.701 148.224 -105.701 166.171V229.17C-105.701 254.443 -103.503 262.867 -100.205 268.361C-97.6397 272.756 -92.876 275.32 -89.578 276.785Z" fill="#F9F8F6"/>
<path d="M58.2106 189.246V183.752C58.2106 183.02 57.8442 182.287 57.1113 182.287C56.7449 182.287 56.3784 182.287 55.6456 183.02C40.9878 195.107 13.5045 202.066 -6.28351 214.519C-20.2084 223.31 -26.0715 235.397 -26.0715 247.117C-26.0715 265.797 -12.1466 277.518 5.80914 277.518C21.5662 277.518 39.522 268.727 49.416 248.216C57.8442 230.635 58.2106 212.321 58.2106 189.246ZM101.451 269.094C106.215 269.094 106.581 273.123 106.581 274.588C106.581 283.012 95.9543 293.634 83.4953 293.634C72.502 293.634 61.5087 286.308 59.31 263.966C59.31 263.233 59.31 262.501 58.5771 262.501C58.2106 262.501 57.8442 262.867 57.1113 263.966C45.0186 283.744 21.9327 293.634 -0.786865 293.634C-29.7359 293.634 -57.5857 276.419 -57.5857 246.751C-57.5857 232.466 -50.2568 218.548 -35.9655 208.659C-16.1775 194.74 6.1756 191.81 27.4293 181.921C49.416 171.665 58.2106 157.747 58.2106 142.73C58.2106 124.783 46.8509 109.399 24.8643 109.399C12.7716 109.399 3.61047 113.062 -4.45129 119.655C-17.6433 130.277 -23.1399 143.462 -27.5373 149.323C-29.3695 152.253 -31.5681 154.817 -35.2326 154.817C-43.2944 154.817 -43.2943 145.294 -43.2943 138.701C-43.2943 129.544 -41.4622 117.457 -37.4313 111.963C-32.3011 105.736 -21.6742 100.975 -9.94797 98.0448C-0.786865 95.4809 10.2065 94.3821 20.1005 94.3821C46.118 94.3821 61.5087 103.173 71.7691 114.527C86.0604 130.643 86.7933 152.619 86.7933 171.299C86.7933 191.078 85.694 212.688 85.694 234.298C85.694 250.78 85.694 269.826 95.9544 269.826C97.4202 269.826 99.9853 269.094 101.451 269.094Z" fill="#F9F8F6"/>
<path d="M253.013 252.978C257.777 252.978 258.876 256.64 258.876 258.105C258.876 260.669 257.41 263.599 255.944 266.163C248.249 278.617 231.026 293.634 205.742 293.634C185.954 293.634 173.495 283.378 167.631 273.489C161.035 262.134 159.57 247.484 159.57 231.368C159.57 200.601 161.768 165.805 161.768 126.614C161.768 124.05 160.669 122.585 158.104 122.585H135.384C132.453 122.585 131.353 121.486 131.353 118.922V108.667C131.353 106.835 132.086 105.736 134.285 105.004C146.744 100.975 153.707 96.946 158.104 91.8182C163.967 84.859 165.066 75.7022 168.731 58.1212C169.097 55.9236 170.197 54.4585 172.762 54.4585H184.854C187.419 54.4585 188.519 55.9236 188.519 58.1212V97.3122C188.519 102.806 190.351 104.638 196.581 104.638C201.711 104.638 206.841 104.638 216.002 104.271C225.53 103.905 236.889 102.44 244.585 102.44C249.715 102.44 254.845 102.806 254.845 108.3C254.845 110.498 254.112 111.597 253.746 113.794C251.914 122.585 248.249 124.416 238.355 124.416C231.759 124.416 222.964 123.318 213.07 122.951C205.009 122.585 199.878 122.585 192.916 122.585C189.984 122.585 188.519 124.416 188.519 127.347C188.152 133.573 187.786 166.538 187.786 191.444C187.786 219.647 188.519 240.158 192.916 251.879C197.68 264.698 207.574 269.094 217.468 269.094C237.622 269.094 246.417 252.978 253.013 252.978Z" fill="#F9F8F6"/>
<path d="M319.039 169.101C319.039 171.665 320.138 172.398 322.337 172.398H387.93C410.283 172.398 421.643 168.003 421.643 148.957C421.643 130.643 405.886 109.033 376.57 109.033C335.895 109.033 319.039 153.352 319.039 169.101ZM441.431 242.722C445.462 242.722 448.393 246.018 448.393 250.047C448.393 257.739 437.4 269.46 422.742 279.349C408.817 288.506 391.228 293.634 373.639 293.634C324.535 293.634 286.792 255.908 286.792 199.136C286.792 145.294 323.436 94.3821 379.502 94.3821C400.389 94.3821 419.078 102.074 431.903 114.527C443.63 126.248 452.424 143.096 452.424 160.677C452.424 179.357 445.462 187.049 424.208 187.049H320.504C317.939 187.049 316.474 187.781 316.474 190.711C316.474 209.391 319.772 229.536 330.765 245.286C341.758 261.402 357.882 273.489 380.235 273.489C393.793 273.489 405.886 269.094 413.948 264.332C430.071 254.809 434.469 242.722 441.431 242.722Z" fill="#F9F8F6"/>
<path d="M587.273 94.3821C603.396 94.3821 608.16 106.103 608.16 115.626C608.16 122.951 605.595 130.277 597.9 130.277C588.739 130.277 586.174 122.585 575.18 122.585C567.485 122.585 558.324 126.614 550.628 139.067C540.368 155.916 538.536 175.328 538.536 229.536C538.536 254.809 541.101 263.233 544.032 268.361C546.598 272.756 552.094 275.32 554.659 276.785C559.057 278.983 560.156 281.181 560.156 283.744C560.156 288.14 556.492 289.605 551.728 289.605H497.494C493.097 289.605 489.066 288.14 489.066 283.744C489.066 281.181 490.532 278.983 494.562 276.785C498.227 274.954 502.991 272.39 505.922 266.896C508.854 261.402 511.052 254.809 511.052 229.536C511.052 203.165 510.686 160.311 510.686 157.014C510.686 139.433 509.587 130.277 505.556 125.881C502.258 122.219 499.326 121.486 494.196 119.655C490.898 118.556 486.134 116.725 486.134 112.696C486.134 108.667 487.6 106.469 495.295 104.638C505.556 102.44 509.953 100.975 519.481 96.946C523.512 95.1146 525.71 94.7484 527.909 94.7484C533.406 94.7484 535.238 98.0448 535.238 103.539V133.207C535.238 133.939 535.604 134.306 535.971 134.306C536.337 134.306 536.704 133.573 537.07 132.841C544.032 119.289 564.553 94.3821 587.273 94.3821Z" fill="#F9F8F6"/>
<path d="M931.235 277.152C934.899 278.983 937.098 280.814 937.098 283.744C937.098 288.14 933.067 289.605 928.303 289.605H874.436C869.672 289.605 865.641 288.14 865.641 283.744C865.641 281.181 867.107 278.983 871.138 277.152C873.703 276.053 879.566 272.756 882.131 268.361C885.429 262.867 887.628 254.809 887.628 229.17V167.636C887.628 147.491 882.864 136.137 873.703 127.713C867.107 121.486 857.213 117.457 845.487 117.457C833.761 117.457 821.668 121.852 812.874 131.375C799.682 145.66 797.483 166.171 797.483 229.17C797.483 254.809 800.048 262.867 803.346 268.361C805.911 272.756 810.675 275.32 813.973 277.152C818.004 279.349 819.47 281.181 819.47 283.744C819.47 288.14 815.439 289.605 810.675 289.605H756.808C752.044 289.605 748.013 288.14 748.013 283.744C748.013 281.181 749.479 279.349 753.876 277.152C757.541 275.32 761.938 272.756 764.503 268.361C767.801 262.867 770 254.809 770 229.17V167.636C770 148.957 766.335 133.939 756.441 125.881C750.578 121.12 742.15 117.823 731.523 117.823C719.797 117.823 707.704 121.852 698.177 131.375C684.252 145.66 679.854 166.171 679.854 229.17C679.854 254.809 681.687 262.867 685.351 268.361C688.283 272.756 693.413 275.686 695.978 277.152C700.009 279.349 701.475 281.181 701.475 283.744C701.475 288.14 697.444 289.605 693.046 289.605H639.179C634.415 289.605 630.384 288.14 630.384 283.744C630.384 281.181 631.85 278.983 635.881 277.152C639.179 275.686 643.943 272.756 646.874 268.361C650.172 263.233 652.371 254.809 652.371 229.17V153.718C652.371 138.335 652.371 130.277 648.34 125.515C645.775 122.585 641.744 121.12 636.614 119.655C632.949 118.556 628.919 117.457 628.919 113.062C628.919 109.765 630.018 106.835 638.08 105.004C649.806 102.44 657.868 99.5099 666.296 95.8472C668.861 94.7484 670.693 94.3821 672.526 94.3821C677.656 94.3821 679.854 98.4111 679.854 103.173V127.347C679.854 128.079 680.221 128.445 680.587 128.445C680.954 128.445 681.32 128.079 682.053 126.98C692.68 111.231 712.101 94.3821 741.417 94.3821C770.366 94.3821 787.222 110.498 794.185 127.347C794.551 128.445 794.918 128.812 795.284 128.812C796.017 128.812 796.384 128.445 797.116 127.347C807.743 111.597 826.432 94.3821 856.114 94.3821C879.933 94.3821 896.789 106.469 905.95 121.12C914.012 134.306 915.111 146.759 915.111 166.904V229.17C915.111 254.809 917.31 262.867 920.608 268.361C923.173 272.756 927.937 275.32 931.235 277.152Z" fill="#F9F8F6"/>
<path d="M1084.31 252.978C1089.08 252.978 1090.17 256.64 1090.17 258.105C1090.17 260.669 1088.71 263.599 1087.24 266.163C1079.55 278.617 1062.32 293.634 1037.04 293.634C1017.25 293.634 1004.79 283.378 998.93 273.489C992.334 262.134 990.868 247.484 990.868 231.368C990.868 200.601 993.067 165.805 993.067 126.614C993.067 124.05 991.967 122.585 989.402 122.585H966.683C963.751 122.585 962.652 121.486 962.652 118.922V108.667C962.652 106.835 963.385 105.736 965.583 105.004C978.042 100.975 985.005 96.946 989.402 91.8182C995.265 84.859 996.365 75.7022 1000.03 58.1212C1000.4 55.9236 1001.49 54.4585 1004.06 54.4585H1016.15C1018.72 54.4585 1019.82 55.9236 1019.82 58.1212V97.3122C1019.82 102.806 1021.65 104.638 1027.88 104.638C1033.01 104.638 1038.14 104.638 1047.3 104.271C1056.83 103.905 1068.19 102.44 1075.88 102.44C1081.01 102.44 1086.14 102.806 1086.14 108.3C1086.14 110.498 1085.41 111.597 1085.04 113.794C1083.21 122.585 1079.55 124.416 1069.65 124.416C1063.06 124.416 1054.26 123.318 1044.37 122.951C1036.31 122.585 1031.18 122.585 1024.21 122.585C1021.28 122.585 1019.82 124.416 1019.82 127.347C1019.45 133.573 1019.08 166.538 1019.08 191.444C1019.08 219.647 1019.82 240.158 1024.21 251.879C1028.98 264.698 1038.87 269.094 1048.77 269.094C1068.92 269.094 1077.72 252.978 1084.31 252.978Z" fill="#F9F8F6"/>
<path d="M1128.19 268.727C1128.19 260.303 1145.41 243.088 1153.47 243.088C1161.9 243.088 1179.12 260.669 1179.12 268.727C1179.12 276.419 1161.53 294 1153.47 294C1145.41 294 1128.19 276.785 1128.19 268.727Z" fill="#F9F8F6"/>
<path d="M1368.18 258.838C1355.72 278.983 1329.34 294 1299.29 294C1273.27 294 1249.82 283.012 1234.43 261.768C1222.7 245.652 1217.94 226.972 1217.94 204.63C1217.94 171.665 1230.77 134.672 1260.08 112.696C1277.3 99.5099 1295.26 94.3821 1316.15 94.3821C1329.34 94.3821 1350.59 98.0448 1359.75 107.568C1365.25 113.062 1366.35 123.684 1366.35 132.474C1366.35 147.491 1364.15 153.352 1357.56 153.352C1348.76 153.352 1348.39 142.73 1340.7 131.742C1332.27 119.655 1320.18 111.597 1303.69 111.597C1287.93 111.597 1274.74 120.021 1266.31 130.277C1251.29 148.224 1246.89 170.933 1246.89 195.107C1246.89 213.787 1251.65 232.1 1258.98 244.187C1270.71 263.599 1290.13 272.024 1308.82 272.024C1329.71 272.024 1345.46 261.402 1355.36 250.414C1358.65 246.751 1361.22 243.821 1365.25 243.821C1369.28 243.821 1371.48 247.117 1371.48 250.414C1371.48 252.978 1370.01 255.908 1368.18 258.838Z" fill="#F9F8F6"/>
<path d="M1554.65 203.897C1554.65 167.636 1541.46 130.643 1515.07 115.992C1507.75 111.963 1499.32 109.033 1490.16 109.033C1479.9 109.033 1470.37 111.963 1461.94 117.091C1444.35 128.445 1432.62 150.055 1432.62 181.921C1432.62 231.734 1457.18 278.25 1497.49 278.25C1515.81 278.25 1530.47 269.46 1540.36 255.542C1549.52 242.356 1554.65 224.042 1554.65 203.897ZM1493.82 94.3821C1552.45 94.3821 1583.97 138.335 1583.97 192.909C1583.97 247.85 1547.32 293.634 1493.82 293.634C1438.85 293.634 1402.94 255.175 1402.94 195.107C1402.94 140.166 1439.95 94.3821 1493.82 94.3821Z" fill="#F9F8F6"/>
<path d="M1922.14 277.152C1925.8 278.983 1928 280.814 1928 283.744C1928 288.14 1923.97 289.605 1919.21 289.605H1865.34C1860.57 289.605 1856.54 288.14 1856.54 283.744C1856.54 281.181 1858.01 278.983 1862.04 277.152C1864.61 276.053 1870.47 272.756 1873.03 268.361C1876.33 262.867 1878.53 254.809 1878.53 229.17V167.636C1878.53 147.491 1873.77 136.137 1864.61 127.713C1858.01 121.486 1848.12 117.457 1836.39 117.457C1824.66 117.457 1812.57 121.852 1803.78 131.375C1790.58 145.66 1788.39 166.171 1788.39 229.17C1788.39 254.809 1790.95 262.867 1794.25 268.361C1796.81 272.756 1801.58 275.32 1804.88 277.152C1808.91 279.349 1810.37 281.181 1810.37 283.744C1810.37 288.14 1806.34 289.605 1801.58 289.605H1747.71C1742.95 289.605 1738.91 288.14 1738.91 283.744C1738.91 281.181 1740.38 279.349 1744.78 277.152C1748.44 275.32 1752.84 272.756 1755.4 268.361C1758.7 262.867 1760.9 254.809 1760.9 229.17V167.636C1760.9 148.957 1757.24 133.939 1747.34 125.881C1741.48 121.12 1733.05 117.823 1722.42 117.823C1710.7 117.823 1698.61 121.852 1689.08 131.375C1675.15 145.66 1670.76 166.171 1670.76 229.17C1670.76 254.809 1672.59 262.867 1676.25 268.361C1679.18 272.756 1684.31 275.686 1686.88 277.152C1690.91 279.349 1692.38 281.181 1692.38 283.744C1692.38 288.14 1688.35 289.605 1683.95 289.605H1630.08C1625.32 289.605 1621.29 288.14 1621.29 283.744C1621.29 281.181 1622.75 278.983 1626.78 277.152C1630.08 275.686 1634.84 272.756 1637.78 268.361C1641.07 263.233 1643.27 254.809 1643.27 229.17V153.718C1643.27 138.335 1643.27 130.277 1639.24 125.515C1636.68 122.585 1632.65 121.12 1627.52 119.655C1623.85 118.556 1619.82 117.457 1619.82 113.062C1619.82 109.765 1620.92 106.835 1628.98 105.004C1640.71 102.44 1648.77 99.5099 1657.2 95.8472C1659.76 94.7484 1661.6 94.3821 1663.43 94.3821C1668.56 94.3821 1670.76 98.4111 1670.76 103.173V127.347C1670.76 128.079 1671.12 128.445 1671.49 128.445C1671.86 128.445 1672.22 128.079 1672.96 126.98C1683.58 111.231 1703 94.3821 1732.32 94.3821C1761.27 94.3821 1778.12 110.498 1785.09 127.347C1785.45 128.445 1785.82 128.812 1786.19 128.812C1786.92 128.812 1787.29 128.445 1788.02 127.347C1798.65 111.597 1817.33 94.3821 1847.02 94.3821C1870.83 94.3821 1887.69 106.469 1896.85 121.12C1904.91 134.306 1906.01 146.759 1906.01 166.904V229.17C1906.01 254.809 1908.21 262.867 1911.51 268.361C1914.08 272.756 1918.84 275.32 1922.14 277.152Z" fill="#F9F8F6"/>
</g>
<defs>
<filter id="filter0_i_1635_456" x="-488" y="16" width="2416" height="282" filterUnits="userSpaceOnUse" color-interpolation-filters="sRGB">
<feFlood flood-opacity="0" result="BackgroundImageFix"/>
<feBlend mode="normal" in="SourceGraphic" in2="BackgroundImageFix" result="shape"/>
<feColorMatrix in="SourceAlpha" type="matrix" values="0 0 0 0 0 0 0 0 0 0 0 0 0 0 0 0 0 0 127 0" result="hardAlpha"/>
<feOffset dy="4"/>
<feGaussianBlur stdDeviation="2"/>
<feComposite in2="hardAlpha" operator="arithmetic" k2="-1" k3="1"/>
<feColorMatrix type="matrix" values="0 0 0 0 0.861161 0 0 0 0 0.858259 0 0 0 0 0.852454 0 0 0 0.6 0"/>
<feBlend mode="normal" in2="shape" result="effect1_innerShadow_1635_456"/>
</filter>
<linearGradient id="paint0_linear_1635_456" x1="632.5" y1="8" x2="733.5" y2="8" gradientUnits="userSpaceOnUse">
<stop stop-color="#ED8796"/>
<stop offset="0.184543" stop-color="#F5A97F"/>
<stop offset="0.412178" stop-color="#C6A0F6"/>
<stop offset="0.742395" stop-color="#91D7E3"/>
<stop offset="1" stop-color="#A6DA95"/>
</linearGradient>
</defs>
</svg>
